<?xml version="1.0" encoding="UTF-8"?>
<svg version="1.1" xmlns="http://www.w3.org/2000/svg" width="316" height="285">
<path d="M0 0 C104.28 0 208.56 0 316 0 C316 94.05 316 188.1 316 285 C211.72 285 107.44 285 0 285 C0 190.95 0 96.9 0 0 Z " fill="#FEFEFE" transform="translate(0,0)"/>
<path d="M0 0 C4.41654255 -0.08706286 8.83286457 -0.14041378 13.25 -0.1875 C14.50425781 -0.21263672 15.75851563 -0.23777344 17.05078125 -0.26367188 C18.85869141 -0.27817383 18.85869141 -0.27817383 20.703125 -0.29296875 C22.36843262 -0.31653442 22.36843262 -0.31653442 24.06738281 -0.34057617 C27.4343336 0.05044084 28.81587852 0.39067189 31 3 C31 5.31 31 7.62 31 10 C98.98 10 166.96 10 237 10 C237 7.69 237 5.38 237 3 C238.08520508 1.08081055 238.08520508 1.08081055 240 0 C243.00268555 -0.34057617 243.00268555 -0.34057617 246.63671875 -0.29296875 C247.93544922 -0.28330078 249.23417969 -0.27363281 250.57226562 -0.26367188 C251.94401639 -0.23860585 253.31576118 -0.21321101 254.6875 -0.1875 C256.07094924 -0.1724502 257.45441401 -0.1587623 258.83789062 -0.14648438 C262.22565207 -0.11107223 265.61263139 -0.06168054 269 0 C269 0.66 269 1.32 269 2 C268.15703369 2.02505615 267.31406738 2.0501123 266.44555664 2.07592773 C263.32758326 2.17088155 260.20978497 2.27012448 257.09204102 2.37231445 C255.74085853 2.41571223 254.38961947 2.4573837 253.03833008 2.49731445 C251.09963299 2.55489952 249.16113724 2.61914298 247.22265625 2.68359375 C246.05484619 2.72025146 244.88703613 2.75690918 243.68383789 2.79467773 C241.08220205 2.70076188 241.08220205 2.70076188 240 4 C239.90218775 5.46516304 239.87368252 6.93501822 239.87301636 8.40344238 C239.87019653 9.3541713 239.86737671 10.30490021 239.86447144 11.28443909 C239.86649567 12.33590622 239.8685199 13.38737335 239.87060547 14.47070312 C239.86885315 15.57139633 239.86710083 16.67208954 239.86529541 17.80613708 C239.86087432 21.46452384 239.86381579 25.12286271 239.8671875 28.78125 C239.86651453 31.31091318 239.86554457 33.8405763 239.86428833 36.37023926 C239.86281101 41.67993849 239.86487242 46.98962037 239.86962891 52.29931641 C239.87507149 58.44605958 239.87330882 64.59276959 239.8678025 70.73951197 C239.8627256 76.64217564 239.86325294 82.54482896 239.86618423 88.44749451 C239.86685376 90.96422836 239.8660242 93.48096305 239.86370468 95.99769592 C239.86117967 99.50825275 239.86501662 103.0187449 239.87060547 106.52929688 C239.86756912 108.10649757 239.86756912 108.10649757 239.86447144 109.71556091 C239.86729126 110.66628983 239.87011108 111.61701874 239.87301636 112.59655762 C239.87339338 113.42763786 239.87377041 114.25871811 239.87415886 115.1149826 C239.7930543 117.01253287 239.7930543 117.01253287 241 118 C243.0708472 118.1584265 245.14678029 118.25124422 247.22265625 118.31640625 C248.48271484 118.35830078 249.74277344 118.40019531 251.04101562 118.44335938 C252.38150736 118.48317596 253.7220022 118.52288814 255.0625 118.5625 C256.40691523 118.60568042 257.7513166 118.64929456 259.09570312 118.69335938 C262.3970234 118.79985358 265.69842236 118.9018646 269 119 C269 119.66 269 120.32 269 121 C264.92497206 121.07420211 260.85020608 121.1286257 256.7746582 121.16479492 C255.38852081 121.17987397 254.00243106 121.2003405 252.61645508 121.22631836 C250.62341854 121.26273716 248.63003277 121.27813018 246.63671875 121.29296875 C245.43748779 121.3086792 244.23825684 121.32438965 243.00268555 121.34057617 C240 121 240 121 238.33487988 119.75277233 C236.65307528 117.54446833 236.62944811 116.37211471 236.63923645 113.61506653 C236.63305046 112.27103004 236.63305046 112.27103004 236.6267395 110.89984131 C236.63752533 109.91944885 236.64831116 108.9390564 236.65942383 107.92895508 C236.65898575 106.89463852 236.65854767 105.86032196 236.65809631 104.79466248 C236.66018949 101.36942797 236.68354598 97.94468045 236.70703125 94.51953125 C236.71262531 92.14727547 236.7168963 89.77501622 236.71989441 87.40275574 C236.73135809 81.15388448 236.76083857 74.90522184 236.79400635 68.65643311 C236.82467431 62.28205182 236.83839275 55.90763689 236.85351562 49.53320312 C236.88570664 37.02204632 236.93634623 24.51103425 237 12 C223.57815393 12.08445712 210.15642601 12.17936166 196.73474884 12.28752708 C190.5022249 12.33742841 184.26971741 12.38375914 178.03710938 12.421875 C172.01996867 12.45880544 166.00296762 12.50518672 159.98594666 12.55806351 C157.69272822 12.57656619 155.39947989 12.5916893 153.10621643 12.60334396 C149.88902551 12.6202769 146.67215155 12.64932935 143.45507812 12.68115234 C142.51136353 12.68331253 141.56764893 12.68547272 140.59533691 12.68769836 C123.50732248 12.90298824 114.53546932 21.96176803 103.09570312 33.51318359 C101.11915474 35.50589306 99.12697144 37.4819622 97.1328125 39.45703125 C95.8610155 40.7308094 94.59014875 42.00551716 93.3203125 43.28125 C92.72969025 43.86579956 92.13906799 44.45034912 91.5305481 45.0526123 C87.10594672 49.55310556 84.24177339 53.46137938 83.625 59.9375 C83.82290793 64.85692566 85.37737796 68.86108912 88.375 72.8125 C92.84450827 76.07867912 97.5731913 76.77843828 103 76 C111.74046786 72.62747221 117.0906503 66.14331258 123.40234375 59.44140625 C131.59303563 50.94688654 139.67877429 44.82863359 151.7265625 43.62890625 C167.64505935 43.35774949 177.86508636 48.56742353 189.52285767 59.32888794 C192.12064432 61.84270189 194.68737352 64.38393544 197.2421875 66.94140625 C198.17298126 67.86791489 199.10377502 68.79442352 200.06277466 69.74900818 C202.01399011 71.69283661 203.96138489 73.64039489 205.90625 75.59057617 C208.38562921 78.075782 210.87627525 80.54935179 213.37008476 83.02006626 C215.77191723 85.4035631 218.16264995 87.79807965 220.5546875 90.19140625 C221.44324432 91.07075333 222.33180115 91.9501004 223.24728394 92.85609436 C233.9171677 103.60621403 233.9171677 103.60621403 234.5 111 C234.23007381 115.35255988 232.95189767 118.76031286 230 122 C226.03033631 124.73484137 221.79711874 126.40036016 217 127 C217.48146484 127.85851562 217.48146484 127.85851562 217.97265625 128.734375 C219.67714095 132.49331463 219.63610547 135.95807984 219 140 C217.15405519 144.76319687 214.98708556 147.42569568 210.5625 150 C206.46456301 151.1502981 202.9211101 151.96055505 199 150 C199.33 150.66 199.66 151.32 200 152 C200.59126355 157.91263553 199.49085502 162.25284907 196 167 C192.74415256 169.94262667 189.36209114 171.22948272 185 171.5 C179.19010897 171.19540377 174.94379544 168.13328712 171 164 C170.84144531 164.66386719 170.68289062 165.32773438 170.51953125 166.01171875 C169.03868594 171.61602281 167.77921978 175.35868969 163 179 C158.99184885 181.2150309 155.53535108 181.39783781 151 181 C145.98573415 178.95588068 142.77880098 176.15991272 139.125 172.3125 C138.62742188 171.80138672 138.12984375 171.29027344 137.6171875 170.76367188 C136.40441824 169.51591888 135.20119281 168.25890136 134 167 C133.19175781 167.84304687 132.38351563 168.68609375 131.55078125 169.5546875 C130.47176157 170.66185552 129.39231171 171.76860442 128.3125 172.875 C127.78205078 173.43058594 127.25160156 173.98617187 126.70507812 174.55859375 C122.63805904 178.70046595 119.52825976 180.71908225 113.625 181.375 C109.33501444 180.93120839 106.2141249 179.84816018 103 177 C99.79347171 172.56744619 98.44842983 168.51570173 99 163 C98.07767578 163.74056641 98.07767578 163.74056641 97.13671875 164.49609375 C96.32847656 165.13675781 95.52023438 165.77742187 94.6875 166.4375 C93.48673828 167.39462891 93.48673828 167.39462891 92.26171875 168.37109375 C88.24625373 171.26306079 84.83801083 171.32800073 80 171 C74.89451014 169.36624324 72.50698504 166.70882662 69.90625 162.19921875 C68.42680765 158.60902029 68.60215908 155.84579555 69 152 C69.33 151.34 69.66 150.68 70 150 C69.34 150.33 68.68 150.66 68 151 C62.77063058 151.4431669 59.00696768 151.29171355 54.54296875 148.390625 C51.09866831 145.28639473 49.39104325 141.4129146 48.65625 136.87890625 C48.45413987 132.42406204 49.34476471 129.54031372 52 126 C50.989375 126.0825 49.97875 126.165 48.9375 126.25 C44.44722747 125.96490333 41.35119816 124.96133105 38 122 C34.57106308 117.35076495 33.14262968 112.78724968 34 107 C36.96068207 101.88938498 40.76638005 97.89914356 44.9375 93.75 C45.54529297 93.12609375 46.15308594 92.5021875 46.77929688 91.859375 C51.21300946 87.42087955 54.41522139 85.34463715 60.75 84.5 C66.02214479 84.63030016 70.26347999 87.42627443 74 91 C76.06576909 95.10563513 76.25931369 98.41879139 76 103 C75.67 103.66 75.34 104.32 75 105 C75.66 104.67 76.32 104.34 77 104 C82.91263553 103.40873645 87.25284907 104.50914498 92 108 C95.09009329 111.41901079 96.22111303 114.73484383 96.3125 119.3125 C96 123 96 123 95 125 C95.66 124.67 96.32 124.34 97 124 C101.72799013 123.95815938 105.80800596 124.31523747 109.9375 126.6875 C113.35768735 130.52225551 114.89991002 133.52367284 115.25 138.6875 C115 142 115 142 114 145 C114.85271484 144.83951172 114.85271484 144.83951172 115.72265625 144.67578125 C121.3342844 143.8045268 125.02505531 143.84282356 130 147 C132.26446248 149.4479126 133.84503587 151.86509737 135 155 C134.8828125 157.1015625 134.8828125 157.1015625 134.5625 159.25 C134.36779283 161.84458628 134.57187807 163.39718133 136.09130859 165.53662109 C142.60839901 173.0818335 142.60839901 173.0818335 151 178 C155.97690812 178.31560881 159.90869564 177.73496008 164.0625 174.9375 C166.44358876 171.32746221 167.47947809 168.33028653 167 164 C164.97034017 157.50818726 161.26877175 153.84021072 156.375 149.25 C155.00345178 147.94728413 153.63605638 146.64017795 152.2734375 145.328125 C151.66935059 144.7599707 151.06526367 144.19181641 150.44287109 143.60644531 C149 142 149 142 148 139 C152.06483258 140.6094997 154.73722903 143.51589253 157.71875 146.59375 C158.25850464 147.14107788 158.79825928 147.68840576 159.35437012 148.25231934 C161.65615063 150.58671381 163.9458841 152.93279843 166.23681641 155.27783203 C167.91419076 156.99139158 169.5975415 158.69891756 171.28125 160.40625 C171.79490112 160.9364978 172.30855225 161.46674561 172.83776855 162.01306152 C176.60073496 165.82704277 179.02367948 167.81700736 184.375 168.3125 C189.38159985 167.88089656 192.57275415 166.66512016 195.875 162.8125 C197.36960829 159.07597926 197.86678483 155.91319058 197 152 C192.78460462 144.27231681 185.37300222 138.21240486 179.125 132.125 C177.01773047 130.07082305 174.91713917 128.01014149 172.8203125 125.9453125 C171.89492676 125.04312988 170.96954102 124.14094727 170.01611328 123.21142578 C168 121 168 121 168 119 C170.89852365 120.31307372 172.98277217 121.72684638 175.234375 123.96875 C176.09482422 124.82533203 176.09482422 124.82533203 176.97265625 125.69921875 C177.85244141 126.59060547 177.85244141 126.59060547 178.75 127.5 C179.35199219 128.09425781 179.95398438 128.68851563 180.57421875 129.30078125 C181.14269531 129.87183594 181.71117187 130.44289062 182.296875 131.03125 C182.81604492 131.55267578 183.33521484 132.07410156 183.87011719 132.61132812 C185 134 185 134 185 136 C185.99 136.33 186.98 136.66 188 137 C189.24190075 138.47067194 190.48149239 139.94356755 191.6953125 141.4375 C194.87201536 145.24193456 197.54613584 147.16733546 202.4375 147.9375 C206.74154685 148.22395903 209.45077485 147.61966618 213 145 C215.94899302 140.67481024 216.6475474 137.18037921 216 132 C213.34901704 127.47555269 210.10601965 123.85772259 206.359375 120.234375 C205.83232971 119.71490295 205.30528442 119.19543091 204.76226807 118.66021729 C203.09631778 117.0184963 201.42401647 115.38349273 199.75 113.75 C197.53077234 111.5838216 195.31816256 109.41119182 193.109375 107.234375 C192.59695251 106.73854919 192.08453003 106.24272339 191.55657959 105.73187256 C190.33287228 104.52545476 189.1609502 103.26692466 188 102 C188 101.34 188 100.68 188 100 C191.41535672 101.46837822 193.57624483 103.36601606 196.15234375 106.02734375 C196.92900391 106.81947266 197.70566406 107.61160156 198.50585938 108.42773438 C200.1231096 110.09694444 201.7402974 111.76621499 203.35742188 113.43554688 C204.13537109 114.22896484 204.91332031 115.02238281 205.71484375 115.83984375 C206.41730225 116.56550537 207.11976074 117.29116699 207.84350586 118.03881836 C211.23555729 121.12365354 213.84456047 122.87395205 218.4375 123.375 C223.39454782 122.85320549 226.59732112 121.6364587 229.875 117.8125 C231.36798593 114.08003519 231.87922963 110.90844756 231 107 C227.1003926 100.14770476 220.90976803 94.58785751 215.39453125 89.05859375 C214.47467941 88.13208511 213.55482758 87.20557648 212.60710144 86.25099182 C210.66826461 84.30025813 208.7254194 82.35362112 206.7800293 80.40942383 C204.31356946 77.94316688 201.86115274 75.46344484 199.41208363 72.97993374 C197.04036155 70.58035218 194.65404133 68.19546722 192.26953125 65.80859375 C191.40455521 64.92924667 190.53957916 64.0498996 189.64839172 63.14390564 C179.1222408 52.69479825 169.32054692 46.5263749 154.20263672 46.56835938 C142.89833183 46.88993171 134.04917001 52.31739561 126 60 C125.18208984 61.11181641 125.18208984 61.11181641 124.34765625 62.24609375 C123.90292969 62.82488281 123.45820313 63.40367187 123 64 C122.34 64 121.68 64 121 64 C120.01 65.98 120.01 65.98 119 68 C118.34 68 117.68 68 117 68 C116.79375 68.556875 116.5875 69.11375 116.375 69.6875 C113.90745428 73.83746326 110.47737503 76.31055832 106.1875 78.3125 C100.2277591 79.59793431 95.22291806 80.06689937 89.75 77 C84.91200473 73.54567137 81.62547089 69.48160345 80.55859375 63.54296875 C80.23580206 56.76434335 82.24222685 51.41744138 86.51750183 46.11950684 C88.28696853 44.22119307 90.10516554 42.39213602 91.9609375 40.578125 C92.62912506 39.91085388 93.29731262 39.24358276 93.98574829 38.55609131 C95.39136291 37.15648351 96.80179984 35.76170355 98.21679688 34.37158203 C100.37233166 32.25262306 102.51136579 30.11803129 104.6484375 27.98046875 C106.02249713 26.6162397 107.39746693 25.25292664 108.7734375 23.890625 C109.72529434 22.94210663 109.72529434 22.94210663 110.69638062 21.97442627 C111.60729965 21.08264679 111.60729965 21.08264679 112.53662109 20.17285156 C113.32460587 19.39630219 113.32460587 19.39630219 114.12850952 18.60406494 C116.57401972 16.50800449 119.32007597 14.78661602 122 13 C91.97 12.67 61.94 12.34 31 12 C31.03480469 19.61707031 31.06960937 27.23414063 31.10546875 35.08203125 C31.120792 39.89909618 31.13523349 44.71613118 31.14648438 49.53320312 C31.16443838 57.1840639 31.185709 64.83481727 31.22631836 72.4855957 C31.25884389 78.65176764 31.27683871 84.81782446 31.28463173 90.98407555 C31.29018747 93.34008281 31.30103603 95.69608357 31.31719017 98.05204201 C31.33887368 101.34448638 31.3419707 104.63645114 31.34057617 107.92895508 C31.351362 108.90934753 31.36214783 109.88973999 31.3732605 110.89984131 C31.36707451 112.24387779 31.36707451 112.24387779 31.36076355 113.61506653 C31.36352893 114.3939816 31.36629431 115.17289667 31.36914349 115.97541523 C30.89878893 118.55509686 30.07700596 119.43887783 28 121 C25.08911133 121.34057617 25.08911133 121.34057617 21.58203125 121.29296875 C20.32841797 121.28330078 19.07480469 121.27363281 17.78320312 121.26367188 C15.81770508 121.2259668 15.81770508 121.2259668 13.8125 121.1875 C12.47722837 121.17244967 11.14194063 121.15876187 9.80664062 121.14648438 C6.53735424 121.11107694 3.26887907 121.0616889 0 121 C0 120.34 0 119.68 0 119 C0.81267334 118.97494385 1.62534668 118.9498877 2.46264648 118.92407227 C6.12110752 118.80850882 9.77928528 118.68560416 13.4375 118.5625 C14.71689453 118.52318359 15.99628906 118.48386719 17.31445312 118.44335938 C18.52939453 118.40146484 19.74433594 118.35957031 20.99609375 118.31640625 C22.12200928 118.27974854 23.2479248 118.24309082 24.40795898 118.20532227 C26.92853441 118.28781955 26.92853441 118.28781955 28 117 C28.09565123 115.5325104 28.12188309 114.06043116 28.12025452 112.58982849 C28.12162918 111.63765442 28.12300385 110.68548035 28.12442017 109.70445251 C28.12082489 108.65141434 28.11722961 107.59837616 28.11352539 106.51342773 C28.11367142 105.41112823 28.11381744 104.30882874 28.1139679 103.17312622 C28.11326821 99.50992908 28.10547324 95.84678206 28.09765625 92.18359375 C28.09579227 89.65153532 28.09436827 87.11947652 28.09336853 84.5874176 C28.08993346 78.59151751 28.08204269 72.59563911 28.07201904 66.59974772 C28.06085677 59.77518942 28.05534717 52.95063028 28.05032361 46.12606514 C28.03986004 32.08403336 28.0222613 18.04201767 28 4 C25.3178719 2.65893595 23.11601968 2.78549581 20.1171875 2.68359375 C18.95058594 2.64169922 17.78398438 2.59980469 16.58203125 2.55664062 C15.35871094 2.51732422 14.13539062 2.47800781 12.875 2.4375 C11.64394531 2.39431641 10.41289063 2.35113281 9.14453125 2.30664062 C6.09647147 2.20031296 3.0483281 2.09828219 0 2 C0 1.34 0 0.68 0 0 Z " fill="#7D7D7D" transform="translate(23,85)"/>
<path d="M0 0 C13.24746376 10.54424239 22.55877014 24.95251499 28 41 C28 42.32 28 43.64 28 45 C27.34 45 26.68 45 26 45 C25.57847656 43.86820313 25.15695313 42.73640625 24.72265625 41.5703125 C24.16932869 40.08852006 23.61594011 38.60675041 23.0625 37.125 C22.78470703 36.37863281 22.50691406 35.63226563 22.22070312 34.86328125 C20.74900806 30.87275485 20.74900806 30.87275485 19 27 C-0.305 26.505 -0.305 26.505 -20 26 C-19.01 28.475 -19.01 28.475 -18 31 C-17.71664284 33.42992135 -17.51196541 35.8699502 -17.375 38.3125 C-17.26285156 40.19388672 -17.26285156 40.19388672 -17.1484375 42.11328125 C-17.09945312 43.06589844 -17.05046875 44.01851562 -17 45 C-17.66 45 -18.32 45 -19 45 C-19.50207679 42.20869212 -20.00175075 39.41699129 -20.5 36.625 C-20.64308594 35.8309375 -20.78617187 35.036875 -20.93359375 34.21875 C-22 28.2265625 -22 28.2265625 -22 26 C-47.245 26.495 -47.245 26.495 -73 27 C-73.66 31.95 -74.32 36.9 -75 42 C-75.33 42.99 -75.66 43.98 -76 45 C-76.66 45 -77.32 45 -78 45 C-77.88534579 42.77027727 -77.75785234 40.54121247 -77.625 38.3125 C-77.55539063 37.07113281 -77.48578125 35.82976562 -77.4140625 34.55078125 C-77 31 -77 31 -75 26 C-87.87 26.33 -100.74 26.66 -114 27 C-117.67756213 35.9349576 -117.67756213 35.9349576 -121 45 C-121.66 45 -122.32 45 -123 45 C-120.22178906 25.55252341 -106.71690681 9.04321086 -91.7890625 -2.74609375 C-63.8830081 -22.71603975 -26.74489368 -19.91859299 0 0 Z " fill="#FCFCFC" transform="translate(205,32)"/>
<path d="M0 0 C4.41654255 -0.08706286 8.83286457 -0.14041378 13.25 -0.1875 C14.50425781 -0.21263672 15.75851563 -0.23777344 17.05078125 -0.26367188 C18.85869141 -0.27817383 18.85869141 -0.27817383 20.703125 -0.29296875 C22.36843262 -0.31653442 22.36843262 -0.31653442 24.06738281 -0.34057617 C27.4343336 0.05044084 28.81587852 0.39067189 31 3 C31 5.31 31 7.62 31 10 C98.98 10 166.96 10 237 10 C237 7.69 237 5.38 237 3 C238.08520508 1.08081055 238.08520508 1.08081055 240 0 C243.00268555 -0.34057617 243.00268555 -0.34057617 246.63671875 -0.29296875 C247.93544922 -0.28330078 249.23417969 -0.27363281 250.57226562 -0.26367188 C251.94401639 -0.23860585 253.31576118 -0.21321101 254.6875 -0.1875 C256.07094924 -0.1724502 257.45441401 -0.1587623 258.83789062 -0.14648438 C262.22565207 -0.11107223 265.61263139 -0.06168054 269 0 C269 0.66 269 1.32 269 2 C268.15703369 2.02505615 267.31406738 2.0501123 266.44555664 2.07592773 C263.32758326 2.17088155 260.20978497 2.27012448 257.09204102 2.37231445 C255.74085853 2.41571223 254.38961947 2.4573837 253.03833008 2.49731445 C251.09963299 2.55489952 249.16113724 2.61914298 247.22265625 2.68359375 C246.05484619 2.72025146 244.88703613 2.75690918 243.68383789 2.79467773 C241.08220205 2.70076188 241.08220205 2.70076188 240 4 C239.90218775 5.46516304 239.87368252 6.93501822 239.87301636 8.40344238 C239.87019653 9.3541713 239.86737671 10.30490021 239.86447144 11.28443909 C239.86649567 12.33590622 239.8685199 13.38737335 239.87060547 14.47070312 C239.86885315 15.57139633 239.86710083 16.67208954 239.86529541 17.80613708 C239.86087432 21.46452384 239.86381579 25.12286271 239.8671875 28.78125 C239.86651453 31.31091318 239.86554457 33.8405763 239.86428833 36.37023926 C239.86281101 41.67993849 239.86487242 46.98962037 239.86962891 52.29931641 C239.87507149 58.44605958 239.87330882 64.59276959 239.8678025 70.73951197 C239.8627256 76.64217564 239.86325294 82.54482896 239.86618423 88.44749451 C239.86685376 90.96422836 239.8660242 93.48096305 239.86370468 95.99769592 C239.86117967 99.50825275 239.86501662 103.0187449 239.87060547 106.52929688 C239.86756912 108.10649757 239.86756912 108.10649757 239.86447144 109.71556091 C239.86729126 110.66628983 239.87011108 111.61701874 239.87301636 112.59655762 C239.87339338 113.42763786 239.87377041 114.25871811 239.87415886 115.1149826 C239.7930543 117.01253287 239.7930543 117.01253287 241 118 C243.0708472 118.1584265 245.14678029 118.25124422 247.22265625 118.31640625 C248.48271484 118.35830078 249.74277344 118.40019531 251.04101562 118.44335938 C252.38150736 118.48317596 253.7220022 118.52288814 255.0625 118.5625 C256.40691523 118.60568042 257.7513166 118.64929456 259.09570312 118.69335938 C262.3970234 118.79985358 265.69842236 118.9018646 269 119 C269 119.66 269 120.32 269 121 C264.92497206 121.07420211 260.85020608 121.1286257 256.7746582 121.16479492 C255.38852081 121.17987397 254.00243106 121.2003405 252.61645508 121.22631836 C250.62341854 121.26273716 248.63003277 121.27813018 246.63671875 121.29296875 C245.43748779 121.3086792 244.23825684 121.32438965 243.00268555 121.34057617 C240 121 240 121 238.33487988 119.75277233 C236.65307528 117.54446833 236.62944811 116.37211471 236.63923645 113.61506653 C236.63305046 112.27103004 236.63305046 112.27103004 236.6267395 110.89984131 C236.63752533 109.91944885 236.64831116 108.9390564 236.65942383 107.92895508 C236.65898575 106.89463852 236.65854767 105.86032196 236.65809631 104.79466248 C236.66018949 101.36942797 236.68354598 97.94468045 236.70703125 94.51953125 C236.71262531 92.14727547 236.7168963 89.77501622 236.71989441 87.40275574 C236.73135809 81.15388448 236.76083857 74.90522184 236.79400635 68.65643311 C236.82467431 62.28205182 236.83839275 55.90763689 236.85351562 49.53320312 C236.88570664 37.02204632 236.93634623 24.51103425 237 12 C223.57815393 12.08445712 210.15642601 12.17936166 196.73474884 12.28752708 C190.5022249 12.33742841 184.26971741 12.38375914 178.03710938 12.421875 C172.01996867 12.45880544 166.00296762 12.50518672 159.98594666 12.55806351 C157.69272822 12.57656619 155.39947989 12.5916893 153.10621643 12.60334396 C149.88902551 12.6202769 146.67215155 12.64932935 143.45507812 12.68115234 C142.51136353 12.68331253 141.56764893 12.68547272 140.59533691 12.68769836 C123.50732248 12.90298824 114.53546932 21.96176803 103.09570312 33.51318359 C101.11915474 35.50589306 99.12697144 37.4819622 97.1328125 39.45703125 C95.8610155 40.7308094 94.59014875 42.00551716 93.3203125 43.28125 C92.72969025 43.86579956 92.13906799 44.45034912 91.5305481 45.0526123 C87.10594672 49.55310556 84.24177339 53.46137938 83.625 59.9375 C83.82290793 64.85692566 85.37737796 68.86108912 88.375 72.8125 C92.84450827 76.07867912 97.5731913 76.77843828 103 76 C111.74046786 72.62747221 117.0906503 66.14331258 123.40234375 59.44140625 C131.59303563 50.94688654 139.67877429 44.82863359 151.7265625 43.62890625 C167.64505935 43.35774949 177.86508636 48.56742353 189.52285767 59.32888794 C192.12064432 61.84270189 194.68737352 64.38393544 197.2421875 66.94140625 C198.17298126 67.86791489 199.10377502 68.79442352 200.06277466 69.74900818 C202.01399011 71.69283661 203.96138489 73.64039489 205.90625 75.59057617 C208.38562921 78.075782 210.87627525 80.54935179 213.37008476 83.02006626 C215.77191723 85.4035631 218.16264995 87.79807965 220.5546875 90.19140625 C221.44324432 91.07075333 222.33180115 91.9501004 223.24728394 92.85609436 C233.25783495 102.9419232 233.25783495 102.9419232 234.42578125 109.328125 C234.24348208 112.42092464 233.98408008 115.04775977 233 118 C232.01 117.67 231.02 117.34 230 117 C230.33 116.34 230.66 115.68 231 115 C231.58904521 110.11933971 231.6174502 107.28850668 228.57299805 103.34790039 C224.54453923 98.23731498 219.98489552 93.66063276 215.39453125 89.05859375 C214.47467941 88.13208511 213.55482758 87.20557648 212.60710144 86.25099182 C210.66826461 84.30025813 208.7254194 82.35362112 206.7800293 80.40942383 C204.31356946 77.94316688 201.86115274 75.46344484 199.41208363 72.97993374 C197.04036155 70.58035218 194.65404133 68.19546722 192.26953125 65.80859375 C191.40455521 64.92924667 190.53957916 64.0498996 189.64839172 63.14390564 C179.1222408 52.69479825 169.32054692 46.5263749 154.20263672 46.56835938 C142.89833183 46.88993171 134.04917001 52.31739561 126 60 C125.18208984 61.11181641 125.18208984 61.11181641 124.34765625 62.24609375 C123.90292969 62.82488281 123.45820313 63.40367187 123 64 C122.34 64 121.68 64 121 64 C120.01 65.98 120.01 65.98 119 68 C118.34 68 117.68 68 117 68 C116.79375 68.556875 116.5875 69.11375 116.375 69.6875 C113.90745428 73.83746326 110.47737503 76.31055832 106.1875 78.3125 C100.2277591 79.59793431 95.22291806 80.06689937 89.75 77 C84.91200473 73.54567137 81.62547089 69.48160345 80.55859375 63.54296875 C80.23580206 56.76434335 82.24222685 51.41744138 86.51750183 46.11950684 C88.28696853 44.22119307 90.10516554 42.39213602 91.9609375 40.578125 C92.62912506 39.91085388 93.29731262 39.24358276 93.98574829 38.55609131 C95.39136291 37.15648351 96.80179984 35.76170355 98.21679688 34.37158203 C100.37233166 32.25262306 102.51136579 30.11803129 104.6484375 27.98046875 C106.02249713 26.6162397 107.39746693 25.25292664 108.7734375 23.890625 C109.72529434 22.94210663 109.72529434 22.94210663 110.69638062 21.97442627 C111.60729965 21.08264679 111.60729965 21.08264679 112.53662109 20.17285156 C113.32460587 19.39630219 113.32460587 19.39630219 114.12850952 18.60406494 C116.57401972 16.50800449 119.32007597 14.78661602 122 13 C91.97 12.67 61.94 12.34 31 12 C31.03480469 19.61707031 31.06960937 27.23414063 31.10546875 35.08203125 C31.120792 39.89909618 31.13523349 44.71613118 31.14648438 49.53320312 C31.16443838 57.1840639 31.185709 64.83481727 31.22631836 72.4855957 C31.25884389 78.65176764 31.27683871 84.81782446 31.28463173 90.98407555 C31.29018747 93.34008281 31.30103603 95.69608357 31.31719017 98.05204201 C31.33887368 101.34448638 31.3419707 104.63645114 31.34057617 107.92895508 C31.351362 108.90934753 31.36214783 109.88973999 31.3732605 110.89984131 C31.36707451 112.24387779 31.36707451 112.24387779 31.36076355 113.61506653 C31.36352893 114.3939816 31.36629431 115.17289667 31.36914349 115.97541523 C30.89878893 118.55509686 30.07700596 119.43887783 28 121 C25.08911133 121.34057617 25.08911133 121.34057617 21.58203125 121.29296875 C20.32841797 121.28330078 19.07480469 121.27363281 17.78320312 121.26367188 C15.81770508 121.2259668 15.81770508 121.2259668 13.8125 121.1875 C12.47722837 121.17244967 11.14194063 121.15876187 9.80664062 121.14648438 C6.53735424 121.11107694 3.26887907 121.0616889 0 121 C0 120.34 0 119.68 0 119 C0.81267334 118.97494385 1.62534668 118.9498877 2.46264648 118.92407227 C6.12110752 118.80850882 9.77928528 118.68560416 13.4375 118.5625 C14.71689453 118.52318359 15.99628906 118.48386719 17.31445312 118.44335938 C18.52939453 118.40146484 19.74433594 118.35957031 20.99609375 118.31640625 C22.12200928 118.27974854 23.2479248 118.24309082 24.40795898 118.20532227 C26.92853441 118.28781955 26.92853441 118.28781955 28 117 C28.09565123 115.5325104 28.12188309 114.06043116 28.12025452 112.58982849 C28.12162918 111.63765442 28.12300385 110.68548035 28.12442017 109.70445251 C28.12082489 108.65141434 28.11722961 107.59837616 28.11352539 106.51342773 C28.11367142 105.41112823 28.11381744 104.30882874 28.1139679 103.17312622 C28.11326821 99.50992908 28.10547324 95.84678206 28.09765625 92.18359375 C28.09579227 89.65153532 28.09436827 87.11947652 28.09336853 84.5874176 C28.08993346 78.59151751 28.08204269 72.59563911 28.07201904 66.59974772 C28.06085677 59.77518942 28.05534717 52.95063028 28.05032361 46.12606514 C28.03986004 32.08403336 28.0222613 18.04201767 28 4 C25.3178719 2.65893595 23.11601968 2.78549581 20.1171875 2.68359375 C18.95058594 2.64169922 17.78398438 2.59980469 16.58203125 2.55664062 C15.35871094 2.51732422 14.13539062 2.47800781 12.875 2.4375 C11.64394531 2.39431641 10.41289063 2.35113281 9.14453125 2.30664062 C6.09647147 2.20031296 3.0483281 2.09828219 0 2 C0 1.34 0 0.68 0 0 Z " fill="#818181" transform="translate(23,85)"/>
<path d="M0 0 C9.42337648 5.98285454 13.30826366 14.55731822 16.8125 24.75 C17.03196289 25.3881665 17.25142578 26.02633301 17.47753906 26.68383789 C18.68906353 30.41774063 19 32.97121986 19 37 C2.83 37 -13.34 37 -30 37 C-29.06578831 28.5920948 -27.49460271 23.41489356 -24 16 C-23.61714844 15.16855469 -23.23429688 14.33710937 -22.83984375 13.48046875 C-18.13972033 4.12801978 -10.86664558 -3.26168367 0 0 Z " fill="#FDFDFD" transform="translate(163,19)"/>
<path d="M0 0 C4.36350222 2.22291622 7.09544338 4.45022584 9 9 C9.58275828 14.34195089 8.62419276 17.38647023 6 22 C3.97875977 24.39355469 3.97875977 24.39355469 1.69140625 26.671875 C0.86189453 27.50074219 0.03238281 28.32960937 -0.82226562 29.18359375 C-1.68529297 30.03050781 -2.54832031 30.87742188 -3.4375 31.75 C-4.29666016 32.61238281 -5.15582031 33.47476563 -6.04101562 34.36328125 C-14.45783789 42.70827648 -14.45783789 42.70827648 -20.8125 43.4375 C-25.60668168 43.32100587 -28.60357489 41.24589104 -32 38 C-34.3520829 35.03433026 -34.29489631 31.92369196 -34.4609375 28.1953125 C-32.95498388 21.02288931 -25.96530157 15.66771082 -21 10.75 C-20.19304687 9.9353125 -19.38609375 9.120625 -18.5546875 8.28125 C-17.77351563 7.50265625 -16.99234375 6.7240625 -16.1875 5.921875 C-15.12595703 4.86371582 -15.12595703 4.86371582 -14.04296875 3.78417969 C-9.75720667 0.04130812 -5.64451915 -0.88093651 0 0 Z " fill="#FBFBFB" transform="translate(108,191)"/>
<path d="M0 0 C3.17116746 3.2644371 4.01454128 4.9945458 4.4375 9.5625 C3.83279867 16.57703538 0.13340186 20.58006434 -4.75 25.1875 C-7.85900059 28.16469757 -10.88078625 31.11305074 -13.61328125 34.4453125 C-17.09589881 38.66776074 -19.3421722 40.0171858 -24.8125 40.625 C-29.0900513 40.44744127 -31.60916458 38.99763746 -34.875 36.1875 C-37.75366263 32.73310484 -38.2333028 29.82126915 -38.37109375 25.34765625 C-36.67990738 17.98367151 -29.4894119 12.47012679 -24.375 7.375 C-23.52035156 6.50423828 -22.66570312 5.63347656 -21.78515625 4.73632812 C-20.95886719 3.90939453 -20.13257812 3.08246094 -19.28125 2.23046875 C-18.53166016 1.47789795 -17.78207031 0.72532715 -17.00976562 -0.05004883 C-11.92932973 -4.24442975 -5.32369242 -3.35624087 0 0 Z " fill="#FCFCFC" transform="translate(131.875,213.8125)"/>
<path d="M0 0 C14.88996076 -0.72633955 30.62186875 8.62322236 41.375 18.3125 C46.65544355 23.26068701 51.27348241 28.7854839 55 35 C55 35.66 55 36.32 55 37 C42.79 37 30.58 37 18 37 C14.8125 27.5625 14.8125 27.5625 13.84301758 24.64672852 C11.18800161 16.93199046 7.73124215 9.8887981 2.6875 3.4375 C2.17574219 2.77621094 1.66398438 2.11492188 1.13671875 1.43359375 C0.76160156 0.96050781 0.38648438 0.48742187 0 0 Z " fill="#FCFCFC" transform="translate(167,19)"/>
<path d="M0 0 C13.24746376 10.54424239 22.55877014 24.95251499 28 41 C28 42.32 28 43.64 28 45 C27.34 45 26.68 45 26 45 C25.57847656 43.86820313 25.15695313 42.73640625 24.72265625 41.5703125 C24.16932869 40.08852006 23.61594011 38.60675041 23.0625 37.125 C22.78470703 36.37863281 22.50691406 35.63226563 22.22070312 34.86328125 C20.74900806 30.87275485 20.74900806 30.87275485 19 27 C-0.305 26.505 -0.305 26.505 -20 26 C-19.01 28.475 -19.01 28.475 -18 31 C-17.71664284 33.42992135 -17.51196541 35.8699502 -17.375 38.3125 C-17.26285156 40.19388672 -17.26285156 40.19388672 -17.1484375 42.11328125 C-17.09945312 43.06589844 -17.05046875 44.01851562 -17 45 C-17.66 45 -18.32 45 -19 45 C-19.50207679 42.20869212 -20.00175075 39.41699129 -20.5 36.625 C-20.64308594 35.8309375 -20.78617187 35.036875 -20.93359375 34.21875 C-22 28.2265625 -22 28.2265625 -22 26 C-47.245 26.495 -47.245 26.495 -73 27 C-73.66 31.95 -74.32 36.9 -75 42 C-75.33 42.99 -75.66 43.98 -76 45 C-76.66 45 -77.32 45 -78 45 C-77.88534579 42.77027727 -77.75785234 40.54121247 -77.625 38.3125 C-77.55539063 37.07113281 -77.48578125 35.82976562 -77.4140625 34.55078125 C-77 31 -77 31 -75 26 C-87.87 26.33 -100.74 26.66 -114 27 C-117.67756213 35.9349576 -117.67756213 35.9349576 -121 45 C-121.66 45 -122.32 45 -123 45 C-120.22178906 25.55252341 -106.71690681 9.04321086 -91.7890625 -2.74609375 C-63.8830081 -22.71603975 -26.74489368 -19.91859299 0 0 Z M-61.1875 -5.75 C-66.94719107 2.98884163 -72 13.42512962 -72 24 C-55.83 24 -39.66 24 -23 24 C-24.93515794 10.45389442 -28.77510641 -2.83258513 -39.86328125 -11.703125 C-48.86505198 -17.16672259 -54.71529907 -12.40712096 -61.1875 -5.75 Z M-102.328125 9.3671875 C-108.85435 15.87890296 -108.85435 15.87890296 -112 24 C-99.79 24 -87.58 24 -75 24 C-73.453125 19.3903125 -73.453125 19.3903125 -71.875 14.6875 C-68.336967 4.43200782 -64.42114378 -4.92404941 -57 -13 C-73.88629526 -13.87922517 -91.05256565 -2.09755909 -102.328125 9.3671875 Z M-38 -13 C-37.47212891 -12.37738281 -37.47212891 -12.37738281 -36.93359375 -11.7421875 C-28.31724882 -0.98862908 -24.34614954 10.96155139 -20 24 C-7.79 24 4.42 24 17 24 C11.07665735 9.19164338 -2.87889253 -1.40798735 -17 -8 C-23.81084625 -10.84312072 -30.52177328 -13.36479155 -38 -13 Z " fill="#828282" transform="translate(205,32)"/>
<path d="M0 0 C5.13656401 1.81290495 7.56523417 4.13046834 10 9 C10.63736121 14.18994125 9.94258045 16.77908542 7 21 C4.78183506 23.49366835 2.43653597 25.84286385 0.0625 28.1875 C-0.55818359 28.81591797 -1.17886719 29.44433594 -1.81835938 30.09179688 C-2.42357422 30.69443359 -3.02878906 31.29707031 -3.65234375 31.91796875 C-4.47206665 32.73430786 -4.47206665 32.73430786 -5.30834961 33.56713867 C-8.96729965 36.6663417 -12.13790156 37.45145526 -16.97265625 37.31640625 C-21.37715431 36.62899904 -24.11259365 34.06488762 -26.875 30.75 C-28.39169041 27.04253455 -28.87141799 23.88897285 -28 20 C-24.76959241 13.79951071 -19.34539606 9.34244546 -14 5 C-13.05125 4.21625 -12.1025 3.4325 -11.125 2.625 C-7.31318506 -0.28991731 -4.79662025 -0.31977468 0 0 Z " fill="#FCFCFC" transform="translate(87,172)"/>
<path d="M0 0 C3.43615111 2.12017834 5.80717883 4.09622164 7 8 C7.43240411 12.46817575 7.53438303 14.9079999 5.5625 18.9375 C4.716875 19.948125 3.87125 20.95875 3 22 C2.36707031 22.77085937 1.73414063 23.54171875 1.08203125 24.3359375 C-2.61911783 28.48908532 -5.53705592 31.49433615 -11.1875 32.3125 C-15.85250371 32.35596277 -18.56077064 31.27146207 -22 28 C-24.910372 23.634442 -25.6506249 20.20499921 -25 15 C-19.80285407 4.82225589 -11.61769604 -2.88367812 0 0 Z " fill="#FCFCFC" transform="translate(149,232)"/>
<path d="M0 0 C1.29873047 0.00966797 2.59746094 0.01933594 3.93554688 0.02929688 C5.30729764 0.0543629 6.67904243 0.07975774 8.05078125 0.10546875 C9.43423049 0.12051855 10.81769526 0.13420645 12.20117188 0.14648438 C15.58893332 0.18189652 18.97591264 0.23128821 22.36328125 0.29296875 C22.36328125 0.95296875 22.36328125 1.61296875 22.36328125 2.29296875 C21.52031494 2.3180249 20.67734863 2.34308105 19.80883789 2.36889648 C16.69086451 2.4638503 13.57306622 2.56309323 10.45532227 2.6652832 C9.10413978 2.70868098 7.75290072 2.75035245 6.40161133 2.7902832 C4.46291424 2.84786827 2.52441849 2.91211173 0.5859375 2.9765625 C-0.58187256 3.01322021 -1.74968262 3.04987793 -2.95288086 3.08764648 C-5.5545167 2.99373063 -5.5545167 2.99373063 -6.63671875 4.29296875 C-6.734531 5.75813179 -6.76303623 7.22798697 -6.76370239 8.69641113 C-6.76652222 9.64714005 -6.76934204 10.59786896 -6.77224731 11.57740784 C-6.77022308 12.62887497 -6.76819885 13.6803421 -6.76611328 14.76367188 C-6.7678656 15.86436508 -6.76961792 16.96505829 -6.77142334 18.09910583 C-6.77584443 21.75749259 -6.77290296 25.41583146 -6.76953125 29.07421875 C-6.77020422 31.60388193 -6.77117418 34.13354505 -6.77243042 36.66320801 C-6.77390774 41.97290724 -6.77184633 47.28258912 -6.76708984 52.59228516 C-6.76164726 58.73902833 -6.76340993 64.88573834 -6.76891625 71.03248072 C-6.77399315 76.93514439 -6.77346581 82.83779771 -6.77053452 88.74046326 C-6.76986499 91.25719711 -6.77069455 93.7739318 -6.77301407 96.29066467 C-6.77553908 99.8012215 -6.77170213 103.31171365 -6.76611328 106.82226562 C-6.76914963 108.39946632 -6.76914963 108.39946632 -6.77224731 110.00852966 C-6.76801758 111.43462303 -6.76801758 111.43462303 -6.76370239 112.88952637 C-6.76332537 113.72060661 -6.76294834 114.55168686 -6.76255989 115.40795135 C-6.84366445 117.30550162 -6.84366445 117.30550162 -5.63671875 118.29296875 C-3.56587155 118.45139525 -1.48993846 118.54421297 0.5859375 118.609375 C1.84599609 118.65126953 3.10605469 118.69316406 4.40429688 118.73632812 C5.74478861 118.77614471 7.08528345 118.81585689 8.42578125 118.85546875 C9.77019648 118.89864917 11.11459785 118.94226331 12.45898438 118.98632812 C15.76030465 119.09282233 19.06170361 119.19483335 22.36328125 119.29296875 C22.36328125 119.95296875 22.36328125 120.61296875 22.36328125 121.29296875 C18.28825331 121.36717086 14.21348733 121.42159445 10.13793945 121.45776367 C8.75180206 121.47284272 7.36571231 121.49330925 5.97973633 121.51928711 C3.98669979 121.55570591 1.99331402 121.57109893 0 121.5859375 C-1.19923096 121.60164795 -2.39846191 121.6173584 -3.6340332 121.63354492 C-6.63671875 121.29296875 -6.63671875 121.29296875 -8.30183887 120.04574108 C-9.98364347 117.83743708 -10.00727064 116.66508346 -9.9974823 113.90803528 C-10.00160629 113.01201096 -10.00573029 112.11598663 -10.00997925 111.19281006 C-9.99919342 110.2124176 -9.98840759 109.23202515 -9.97729492 108.22192383 C-9.97795204 106.67044899 -9.97795204 106.67044899 -9.97862244 105.08763123 C-9.97652926 101.66239672 -9.95317277 98.2376492 -9.9296875 94.8125 C-9.92409344 92.44024422 -9.91982245 90.06798497 -9.91682434 87.69572449 C-9.90536066 81.44685323 -9.87588018 75.19819059 -9.8427124 68.94940186 C-9.80665403 61.4546159 -9.79285764 53.95976025 -9.77535248 46.46491241 C-9.74624397 35.07411935 -9.68876682 23.6837842 -9.63671875 12.29296875 C-43.29671875 12.29296875 -76.95671875 12.29296875 -111.63671875 12.29296875 C-111.30671875 11.63296875 -110.97671875 10.97296875 -110.63671875 10.29296875 C-77.30671875 10.29296875 -43.97671875 10.29296875 -9.63671875 10.29296875 C-9.63671875 7.98296875 -9.63671875 5.67296875 -9.63671875 3.29296875 C-7.42547054 -0.61763241 -4.14921937 -0.05435659 0 0 Z " fill="#6F6F6F" transform="translate(269.63671875,84.70703125)"/>
<path d="M0 0 C4.41654255 -0.08706286 8.83286457 -0.14041378 13.25 -0.1875 C14.50425781 -0.21263672 15.75851563 -0.23777344 17.05078125 -0.26367188 C18.85869141 -0.27817383 18.85869141 -0.27817383 20.703125 -0.29296875 C22.36843262 -0.31653442 22.36843262 -0.31653442 24.06738281 -0.34057617 C27.4343336 0.05044084 28.81587852 0.39067189 31 3 C31 5.31 31 7.62 31 10 C60.37 10 89.74 10 120 10 C120 10.66 120 11.32 120 12 C90.63 12 61.26 12 31 12 C31.03480469 19.61707031 31.06960937 27.23414063 31.10546875 35.08203125 C31.120792 39.89909618 31.13523349 44.71613118 31.14648438 49.53320312 C31.16443838 57.1840639 31.185709 64.83481727 31.22631836 72.4855957 C31.25884389 78.65176764 31.27683871 84.81782446 31.28463173 90.98407555 C31.29018747 93.34008281 31.30103603 95.69608357 31.31719017 98.05204201 C31.33887368 101.34448638 31.3419707 104.63645114 31.34057617 107.92895508 C31.351362 108.90934753 31.36214783 109.88973999 31.3732605 110.89984131 C31.36707451 112.24387779 31.36707451 112.24387779 31.36076355 113.61506653 C31.36352893 114.3939816 31.36629431 115.17289667 31.36914349 115.97541523 C30.89878893 118.55509686 30.07700596 119.43887783 28 121 C25.08911133 121.34057617 25.08911133 121.34057617 21.58203125 121.29296875 C20.32841797 121.28330078 19.07480469 121.27363281 17.78320312 121.26367188 C15.81770508 121.2259668 15.81770508 121.2259668 13.8125 121.1875 C12.47722837 121.17244967 11.14194063 121.15876187 9.80664062 121.14648438 C6.53735424 121.11107694 3.26887907 121.0616889 0 121 C0 120.34 0 119.68 0 119 C0.81267334 118.97494385 1.62534668 118.9498877 2.46264648 118.92407227 C6.12110752 118.80850882 9.77928528 118.68560416 13.4375 118.5625 C14.71689453 118.52318359 15.99628906 118.48386719 17.31445312 118.44335938 C18.52939453 118.40146484 19.74433594 118.35957031 20.99609375 118.31640625 C22.12200928 118.27974854 23.2479248 118.24309082 24.40795898 118.20532227 C26.92853441 118.28781955 26.92853441 118.28781955 28 117 C28.09565123 115.5325104 28.12188309 114.06043116 28.12025452 112.58982849 C28.12162918 111.63765442 28.12300385 110.68548035 28.12442017 109.70445251 C28.12082489 108.65141434 28.11722961 107.59837616 28.11352539 106.51342773 C28.11367142 105.41112823 28.11381744 104.30882874 28.1139679 103.17312622 C28.11326821 99.50992908 28.10547324 95.84678206 28.09765625 92.18359375 C28.09579227 89.65153532 28.09436827 87.11947652 28.09336853 84.5874176 C28.08993346 78.59151751 28.08204269 72.59563911 28.07201904 66.59974772 C28.06085677 59.77518942 28.05534717 52.95063028 28.05032361 46.12606514 C28.03986004 32.08403336 28.0222613 18.04201767 28 4 C25.3178719 2.65893595 23.11601968 2.78549581 20.1171875 2.68359375 C18.95058594 2.64169922 17.78398438 2.59980469 16.58203125 2.55664062 C15.35871094 2.51732422 14.13539062 2.47800781 12.875 2.4375 C11.64394531 2.39431641 10.41289063 2.35113281 9.14453125 2.30664062 C6.09647147 2.20031296 3.0483281 2.09828219 0 2 C0 1.34 0 0.68 0 0 Z " fill="#6E6E6E" transform="translate(23,85)"/>
<path d="M0 0 C0.495 0.99 0.495 0.99 1 2 C-16.16 2.33 -33.32 2.66 -51 3 C-51.66 7.95 -52.32 12.9 -53 18 C-53.495 19.485 -53.495 19.485 -54 21 C-54.66 21 -55.32 21 -56 21 C-55.88534579 18.77027727 -55.75785234 16.54121247 -55.625 14.3125 C-55.55539063 13.07113281 -55.48578125 11.82976562 -55.4140625 10.55078125 C-55 7 -55 7 -53 2 C-65.87 2.33 -78.74 2.66 -92 3 C-95.67756213 11.9349576 -95.67756213 11.9349576 -99 21 C-99.66 21 -100.32 21 -101 21 C-99.70887102 13.8401029 -97.55587882 7.38234661 -94 1 C-91.07605347 -0.46197326 -88.09427094 -0.26023779 -84.8828125 -0.3515625 C-84.13816742 -0.37512314 -83.39352234 -0.39868378 -82.62631226 -0.42295837 C-80.12602188 -0.49768135 -77.62562271 -0.56242559 -75.125 -0.625 C-74.26672607 -0.64779022 -73.40845215 -0.67058044 -72.52416992 -0.69406128 C-48.3459165 -1.3070647 -24.17179188 -0.63362908 0 0 Z " fill="#717171" transform="translate(183,56)"/>
<path d="M0 0 C2.125 0.375 2.125 0.375 4 1 C4 1.66 4 2.32 4 3 C5.02402141 4.342737 6.09526425 5.64963993 7.1875 6.9375 C17.78444683 20.39157132 23.77567392 41.9351737 23 59 C22.34 59 21.68 59 21 59 C20.80664062 57.87722656 20.61328125 56.75445312 20.4140625 55.59765625 C18.49635359 44.23957359 18.49635359 44.23957359 16 33 C15.82082031 32.25234375 15.64164063 31.5046875 15.45703125 30.734375 C12.47188355 19.51745637 7.76743103 8.74840689 -2 2 C-1.34 1.34 -0.68 0.68 0 0 Z " fill="#838383" transform="translate(165,18)"/>
<path d="M0 0 C2.22494987 1.48329992 4.37399217 3.01484113 6.484375 4.65625 C6.154375 5.64625 5.824375 6.63625 5.484375 7.65625 C4.01953125 6.38671875 2.5546875 5.1171875 1.08984375 3.84765625 C-2.52313079 1.1664951 -6.19171345 1.28981682 -10.515625 1.65625 C-15.71847246 4.36606638 -19.49353164 8.47440059 -23.515625 12.65625 C-24.44375 13.56375 -25.371875 14.47125 -26.328125 15.40625 C-29.36541138 18.53031599 -30.45739715 20.06426687 -30.890625 24.46875 C-30.77864143 28.82011148 -29.32673566 31.29853449 -26.515625 34.65625 C-24.40986857 36.48925909 -24.40986857 36.48925909 -22.515625 37.65625 C-26.515625 37.65625 -26.515625 37.65625 -29.140625 35.46875 C-32.35897224 31.65754932 -33.35173793 29.15854814 -33.890625 24.21875 C-33.13426489 17.03332895 -27.48890002 12.2911516 -22.578125 7.40625 C-21.97033203 6.78234375 -21.36253906 6.1584375 -20.73632812 5.515625 C-14.94531985 -0.28163032 -8.011549 -4.27946096 0 0 Z " fill="#7F7F7F" transform="translate(90.515625,171.34375)"/>
<path d="M0 0 C4.03615962 3.42894977 5.73811918 7.23365574 7.75 12 C8.06582031 12.7115625 8.38164062 13.423125 8.70703125 14.15625 C10.23663879 17.70546924 11 20.08348139 11 24 C10.34 24 9.68 24 9 24 C8.36771484 22.30230469 8.36771484 22.30230469 7.72265625 20.5703125 C7.16932869 19.08852006 6.61594011 17.60675041 6.0625 16.125 C5.64581055 15.00544922 5.64581055 15.00544922 5.22070312 13.86328125 C3.74900806 9.87275485 3.74900806 9.87275485 2 6 C-10.54 5.67 -23.08 5.34 -36 5 C-36.33 4.34 -36.66 3.68 -37 3 C-24.79 3 -12.58 3 0 3 C0 2.01 0 1.02 0 0 Z " fill="#707070" transform="translate(222,53)"/>
<path d="M0 0 C1.32 1.32 2.64 2.64 4 4 C3.41734375 4.51046875 2.8346875 5.0209375 2.234375 5.546875 C-3.42331888 10.56407524 -8.82266739 15.73816596 -14.06347656 21.18847656 C-15.33961226 22.49517838 -16.66594354 23.75248834 -18 25 C-18.66 25 -19.32 25 -20 25 C-18.59004711 21.77731411 -16.91228948 19.70651132 -14.375 17.28515625 C-13.66859375 16.59873047 -12.9621875 15.91230469 -12.234375 15.20507812 C-10.74674168 13.77856261 -9.25716067 12.35407543 -7.765625 10.93164062 C-7.05921875 10.24392578 -6.3528125 9.55621094 -5.625 8.84765625 C-4.97789063 8.22898682 -4.33078125 7.61031738 -3.6640625 6.97290039 C-1.80444389 4.76815009 -0.92922838 2.7146492 0 0 Z " fill="#757575" transform="translate(116,207)"/>
<path d="M0 0 C4.41654255 -0.08706286 8.83286457 -0.14041378 13.25 -0.1875 C14.50425781 -0.21263672 15.75851563 -0.23777344 17.05078125 -0.26367188 C18.85869141 -0.27817383 18.85869141 -0.27817383 20.703125 -0.29296875 C22.36843262 -0.31653442 22.36843262 -0.31653442 24.06738281 -0.34057617 C27.33259587 0.03862564 28.71005379 0.67110678 31 3 C31.25 5.6875 31.25 5.6875 31 8 C29 7 29 7 28 4 C25.3178719 2.65893595 23.11601968 2.78549581 20.1171875 2.68359375 C18.95058594 2.64169922 17.78398438 2.59980469 16.58203125 2.55664062 C15.35871094 2.51732422 14.13539062 2.47800781 12.875 2.4375 C11.64394531 2.39431641 10.41289063 2.35113281 9.14453125 2.30664062 C6.09647147 2.20031296 3.0483281 2.09828219 0 2 C0 1.34 0 0.68 0 0 Z " fill="#757575" transform="translate(23,85)"/>
<path d="M0 0 C1.20970459 0.00523682 2.41940918 0.01047363 3.66577148 0.01586914 C4.97094727 0.0190918 6.27612305 0.02231445 7.62084961 0.02563477 C9.00952213 0.03399138 10.39819401 0.04245634 11.78686523 0.05102539 C13.17944179 0.05603873 14.57202005 0.06060193 15.96459961 0.06469727 C19.38456394 0.07653105 22.80444367 0.09301659 26.22436523 0.11352539 C26.22436523 0.77352539 26.22436523 1.43352539 26.22436523 2.11352539 C25.39710938 2.13334473 24.56985352 2.15316406 23.7175293 2.17358398 C19.96948718 2.26883751 16.22200207 2.37851648 12.47436523 2.48852539 C11.17241211 2.51946289 9.87045898 2.55040039 8.52905273 2.58227539 C7.27866211 2.62094727 6.02827148 2.65961914 4.73999023 2.69946289 C3.58789062 2.73088379 2.43579102 2.76230469 1.2487793 2.79467773 C-1.62397898 3.09753714 -3.33743088 3.62234919 -5.77563477 5.11352539 C-3.36800329 0.13775367 -3.36800329 0.13775367 0 0 Z " fill="#757575" transform="translate(265.775634765625,84.886474609375)"/>
<path d="M0 0 C0 0.99 0 1.98 0 3 C-2 5 -2 5 -4.79736328 5.22705078 C-5.95993652 5.21657715 -7.12250977 5.20610352 -8.3203125 5.1953125 C-10.20556641 5.18564453 -10.20556641 5.18564453 -12.12890625 5.17578125 C-13.44761719 5.15902344 -14.76632813 5.14226562 -16.125 5.125 C-17.46483721 5.11496983 -18.80468152 5.10584404 -20.14453125 5.09765625 C-23.42986573 5.07402075 -26.71484465 5.04107234 -30 5 C-30 4.34 -30 3.68 -30 3 C-29.19780029 2.98018066 -28.39560059 2.96036133 -27.5690918 2.93994141 C-23.94155823 2.84480505 -20.31460955 2.7350792 -16.6875 2.625 C-15.42486328 2.5940625 -14.16222656 2.563125 -12.86132812 2.53125 C-11.04858398 2.47324219 -11.04858398 2.47324219 -9.19921875 2.4140625 C-8.08377686 2.3826416 -6.96833496 2.3512207 -5.8190918 2.31884766 C-2.79631214 2.194751 -2.79631214 2.194751 0 0 Z " fill="#757575" transform="translate(53,201)"/>
<path d="M0 0 C2.64 0 5.28 0 8 0 C7.835 0.99 7.67 1.98 7.5 3 C6.43639432 10.51636636 6.43639432 10.51636636 8.25 17.75 C10.02234055 20.02872356 11.8880701 22.03372044 14 24 C11 24 11 24 8.4375 21.8125 C4.57465766 17.35537422 3.60997996 13.72096184 3.73046875 7.9375 C4.11846316 5.14843874 5.3309441 3.22540786 7 1 C4.69 1 2.38 1 0 1 C0 0.67 0 0.34 0 0 Z " fill="#828282" transform="translate(68,210)"/>
<path d="M0 0 C3.15204981 1.39347376 5.26171773 3.02485079 7.671875 5.4765625 C8.33574219 6.146875 8.99960938 6.8171875 9.68359375 7.5078125 C10.36550781 8.20648438 11.04742187 8.90515625 11.75 9.625 C12.44738281 10.33140625 13.14476562 11.0378125 13.86328125 11.765625 C15.58012488 13.50598703 17.29211832 15.25084981 19 17 C18.67 17.99 18.34 18.98 18 20 C14.99196428 17.04974274 11.9949821 14.08850331 9 11.125 C8.14148438 10.28324219 7.28296875 9.44148437 6.3984375 8.57421875 C5.58632812 7.76855469 4.77421875 6.96289062 3.9375 6.1328125 C2.80634766 5.01737061 2.80634766 5.01737061 1.65234375 3.87939453 C0 2 0 2 0 0 Z " fill="#838383" transform="translate(211,185)"/>
<path d="M0 0 C0.33 0 0.66 0 1 0 C1.0825 0.99 1.165 1.98 1.25 3 C2.06770996 8.74733288 4.59491162 14.15535543 9 18 C11.59915538 19.19027984 11.59915538 19.19027984 14 20 C14 20.66 14 21.32 14 22 C14.99 22.33 15.98 22.66 17 23 C11.24369658 22.45178063 7.37726882 20.70172545 3.51171875 16.30859375 C-0.30933272 10.98064874 -0.59183312 6.41810137 0 0 Z " fill="#838383" transform="translate(104,141)"/>
<path d="M0 0 C4.97325985 0.40106934 6.89534461 2.52821155 10.125 6.1875 C10.97320312 7.12980469 11.82140625 8.07210937 12.6953125 9.04296875 C14.93601178 11.91789986 16.49898559 14.68893881 18 18 C17.34 18.33 16.68 18.66 16 19 C15.34773437 18.11957031 14.69546875 17.23914063 14.0234375 16.33203125 C13.14099757 15.1585739 12.25816393 13.98541255 11.375 12.8125 C10.73498047 11.9452832 10.73498047 11.9452832 10.08203125 11.06054688 C7.07641007 7.09043532 3.88136758 4.11306168 0 1 C0 0.67 0 0.34 0 0 Z " fill="#848484" transform="translate(205,35)"/>
<path d="M0 0 C1.11503906 0.02449219 2.23007813 0.04898437 3.37890625 0.07421875 C5.88163537 0.26919509 8.044637 0.59288594 10.4375 1.3125 C10.1075 1.9725 9.7775 2.6325 9.4375 3.3125 C8.38949219 3.28929687 7.34148437 3.26609375 6.26171875 3.2421875 C4.88281963 3.22342697 3.5039128 3.20522707 2.125 3.1875 C1.43470703 3.17074219 0.74441406 3.15398438 0.03320312 3.13671875 C-3.73385396 3.10032206 -5.34681704 3.16871136 -8.5625 5.3125 C-9.5525 4.9825 -10.5425 4.6525 -11.5625 4.3125 C-7.66812198 0.62193989 -5.33618084 -0.17931546 0 0 Z " fill="#787878" transform="translate(159.5625,15.6875)"/>
<path d="M0 0 C2.93230193 1.32120828 4.98664899 2.74638197 7.234375 5.0390625 C8.09482422 5.90917969 8.09482422 5.90917969 8.97265625 6.796875 C9.55917969 7.40015625 10.14570313 8.0034375 10.75 8.625 C11.35199219 9.23601562 11.95398438 9.84703125 12.57421875 10.4765625 C14.05405305 11.97988624 15.52764676 13.48934856 17 15 C16.01 15.33 15.02 15.66 14 16 C11.65861457 13.71643754 9.32833018 11.42186626 7 9.125 C5.99839844 8.14853516 5.99839844 8.14853516 4.9765625 7.15234375 C4.34492188 6.52714844 3.71328125 5.90195313 3.0625 5.2578125 C2.47597656 4.6817627 1.88945312 4.10571289 1.28515625 3.51220703 C0 2 0 2 0 0 Z " fill="#848484" transform="translate(191,204)"/>
<path d="M0 0 C5.28 0 10.56 0 16 0 C12.8388984 3.1611016 12.4438418 3.38812741 8.3125 3.6875 C7.10013672 3.78611328 7.10013672 3.78611328 5.86328125 3.88671875 C5.24839844 3.92410156 4.63351563 3.96148437 4 4 C4 3.34 4 2.68 4 2 C2.68 2 1.36 2 0 2 C0 1.34 0 0.68 0 0 Z " fill="#7A7A7A" transform="translate(143,95)"/>
<path d="M0 0 C0.99 0.33 1.98 0.66 3 1 C1.23519919 2.8187336 -0.53630765 4.62994991 -2.3125 6.4375 C-3.06176758 7.2119043 -3.06176758 7.2119043 -3.82617188 8.00195312 C-6.19869635 10.40590176 -7.74970379 11.91656793 -11 13 C-11.99 12.34 -12.98 11.68 -14 11 C-13.27425781 10.76539063 -12.54851562 10.53078125 -11.80078125 10.2890625 C-8.53213699 8.78466556 -6.66802714 6.96659552 -4.1875 4.375 C-3.39730469 3.55773437 -2.60710937 2.74046875 -1.79296875 1.8984375 C-1.20128906 1.27195313 -0.60960937 0.64546875 0 0 Z " fill="#858585" transform="translate(153,252)"/>
<path d="M0 0 C1.485 0.99 1.485 0.99 3 2 C3.51171875 5.2578125 3.51171875 5.2578125 3.6875 9.125 C3.75324219 10.40632813 3.81898438 11.68765625 3.88671875 13.0078125 C3.92410156 13.99523437 3.96148437 14.98265625 4 16 C3.34 16 2.68 16 2 16 C0.80911014 10.61972975 -0.2919519 5.54708616 0 0 Z " fill="#909090" transform="translate(184,61)"/>
<path d="M0 0 C2.31097404 2.86057532 3.82929391 5.58627129 5.1875 9 C5.53167969 9.845625 5.87585938 10.69125 6.23046875 11.5625 C7 14 7 14 7 18 C6.34 18 5.68 18 5 18 C3.02 12.39 1.04 6.78 -1 1 C-0.67 0.67 -0.34 0.34 0 0 Z " fill="#848484" transform="translate(226,59)"/>
<path d="M0 0 C1.95273962 2.92910944 2.75396363 5.08132291 3.6875 8.4375 C3.95949219 9.38496094 4.23148438 10.33242188 4.51171875 11.30859375 C4.99803744 13.98918237 4.89369149 15.46287583 4 18 C1.39487529 12.98314412 -1.27240093 7.66952909 -0.6875 1.9375 C-0.460625 1.298125 -0.23375 0.65875 0 0 Z " fill="#898989" transform="translate(181,44)"/>
<path d="M0 0 C3 1 3 1 4.1875 2.5625 C5.6303038 6.89091141 5.69928782 11.25178044 4 15.5 C3.505 16.2425 3.505 16.2425 3 17 C2.34 17 1.68 17 1 17 C1.165 16.505 1.33 16.01 1.5 15.5 C2.61373893 9.93130536 2.54948608 5.09897216 0 0 Z " fill="#7A7A7A" transform="translate(153,235)"/>
<path d="M0 0 C0.66 0.33 1.32 0.66 2 1 C1.52140759 2.60433809 1.04210442 4.20846416 0.5625 5.8125 C0.29566406 6.70582031 0.02882813 7.59914063 -0.24609375 8.51953125 C-0.80387873 10.35473055 -1.39344575 12.18033726 -2 14 C-2.66 14 -3.32 14 -4 14 C-3.00956295 9.16371695 -2.04301154 4.52381127 0 0 Z " fill="#848484" transform="translate(86,63)"/>
<path d="M0 0 C0.66 0.66 1.32 1.32 2 2 C1.06409496 3.1055189 0.12620142 4.20935453 -0.8125 5.3125 C-1.33457031 5.92738281 -1.85664063 6.54226562 -2.39453125 7.17578125 C-3.87172469 8.85424679 -5.40039131 10.43882034 -7 12 C-6.67566492 6.64847115 -3.50295176 3.71719957 0 0 Z " fill="#818181" transform="translate(147,20)"/>
<path d="M0 0 C0.66 0.33 1.32 0.66 2 1 C0.87811441 2.14888283 -0.24761684 3.29401137 -1.375 4.4375 C-2.00148438 5.07558594 -2.62796875 5.71367187 -3.2734375 6.37109375 C-6.42735982 9.3466268 -8.78088521 9.09171989 -13 9 C-12.42636719 8.73316406 -11.85273437 8.46632812 -11.26171875 8.19140625 C-8.91513571 6.95529602 -6.91888027 5.54593672 -4.8125 3.9375 C-4.11769531 3.41027344 -3.42289063 2.88304687 -2.70703125 2.33984375 C-1.07033279 1.11021516 -1.07033279 1.11021516 0 0 Z " fill="#747474" transform="translate(120,246)"/>
<path d="M0 0 C0.33 0 0.66 0 1 0 C1.19532961 1.7699868 1.38098882 3.54104279 1.5625 5.3125 C1.66691406 6.29863281 1.77132812 7.28476563 1.87890625 8.30078125 C2 11 2 11 1 14 C0.34 14 -0.32 14 -1 14 C-0.67 9.38 -0.34 4.76 0 0 Z " fill="#969696" transform="translate(128,63)"/>
<path d="M0 0 C0.33 0 0.66 0 1 0 C1.12375 1.03125 1.2475 2.0625 1.375 3.125 C1.93889814 6.62116846 2.78682059 9.68397627 4 13 C3.01 13.495 3.01 13.495 2 14 C0.09391902 10.78817851 -0.22266247 8.46117397 -0.125 4.75 C-0.09792969 3.41195312 -0.09792969 3.41195312 -0.0703125 2.046875 C-0.04710938 1.37140625 -0.02390625 0.6959375 0 0 Z " fill="#8D8D8D" transform="translate(104,141)"/>
<path d="M0 0 C0.66 0.33 1.32 0.66 2 1 C0.35 2.65 -1.3 4.3 -3 6 C-3 3 -3 3 -1.5 1.3125 C-0.7575 0.6628125 -0.7575 0.6628125 0 0 Z M-11 10 C-10.34 10.33 -9.68 10.66 -9 11 C-9.99 11 -10.98 11 -12 11 C-11.67 10.67 -11.34 10.34 -11 10 Z " fill="#F3F3F3" transform="translate(76,174)"/>
<path d="M0 0 C2.97 0.99 5.94 1.98 9 3 C8.67 3.99 8.34 4.98 8 6 C7.278125 5.525625 6.55625 5.05125 5.8125 4.5625 C3.10524774 3.05847097 1.03805725 2.43400818 -2 2 C-1.34 1.34 -0.68 0.68 0 0 Z " fill="#888888" transform="translate(191,131)"/>
<path d="M0 0 C2.31 0 4.62 0 7 0 C7 0.33 7 0.66 7 1 C5.35 1.33 3.7 1.66 2 2 C2.66 3.98 3.32 5.96 4 8 C3.01 7.67 2.02 7.34 1 7 C0.67 4.69 0.34 2.38 0 0 Z " fill="#8C8C8C" transform="translate(238,210)"/>
<path d="M0 0 C2.4750171 1.11431765 4.67883419 2.58150978 7 4 C7 5.32 7 6.64 7 8 C5.53515625 6.76302083 4.0703125 5.52604167 2.60546875 4.2890625 C1.1344954 3.10798901 -0.43037794 2.04641471 -2 1 C-1.34 0.67 -0.68 0.34 0 0 Z " fill="#838383" transform="translate(89,171)"/>
<path d="M0 0 C-2.125 2.125 -2.125 2.125 -5 4 C-8.3125 3.25 -8.3125 3.25 -11 2 C-11 1.67 -11 1.34 -11 1 C-7.27569643 0.30710631 -3.78916254 -0.11144596 0 0 Z " fill="#8F8F8F" transform="translate(153,16)"/>
<path d="M0 0 C2.64 0 5.28 0 8 0 C7.67 2.31 7.34 4.62 7 7 C6.34 6.67 5.68 6.34 5 6 C5.66 4.35 6.32 2.7 7 1 C4.69 1 2.38 1 0 1 C0 0.67 0 0.34 0 0 Z " fill="#888888" transform="translate(68,210)"/>
<path d="M0 0 C2.08954032 4.17908064 2.16552619 4.80410573 1 9 C0.01 9 -0.98 9 -2 9 C-1.34 6.03 -0.68 3.06 0 0 Z " fill="#8F8F8F" transform="translate(132,47)"/>
<path d="M0 0 C3.65316671 1.24976756 4.78065836 1.67098753 7 5 C3.85262818 4.30058404 0.97411124 3.23921302 -2 2 C-1.34 1.34 -0.68 0.68 0 0 Z " fill="#878787" transform="translate(148,230)"/>
</svg>
