<?xml version="1.0" encoding="UTF-8"?>
<svg version="1.1" xmlns="http://www.w3.org/2000/svg" width="290" height="242">
<path d="M0 0 C95.7 0 191.4 0 290 0 C290 79.86 290 159.72 290 242 C194.3 242 98.6 242 0 242 C0 162.14 0 82.28 0 0 Z " fill="#FEFEFE" transform="translate(0,0)"/>
<path d="M0 0 C1.02609375 0.06058594 2.0521875 0.12117187 3.109375 0.18359375 C17.54417718 1.76361939 32.08412993 10.80861413 41.30859375 21.734375 C45.15432662 26.84320178 48.61735549 32.05402553 51 38 C51.37125 38.89589844 51.7425 39.79179688 52.125 40.71484375 C55.66297587 50.45656202 55.38788776 59.7963969 55 70 C55.88816406 70.2578125 56.77632812 70.515625 57.69140625 70.78125 C68.03313858 74.59071929 74.93178602 83.57544027 79.5390625 93.22265625 C84.51575385 105.55317364 84.69505754 118.50904468 80 131 C73.97474982 143.20632579 65.13221393 152.58102479 52.1875 157.4375 C45.18897205 159.79857675 38.54105492 160.14018285 31.2265625 160.09765625 C30.3028183 160.0962413 29.3790741 160.09482635 28.42733765 160.09336853 C25.49319138 160.08779609 22.55912299 160.07524869 19.625 160.0625 C17.62890736 160.05748144 15.63281351 160.05291915 13.63671875 160.04882812 C8.75778275 160.03783569 3.87890455 160.0205901 -1 160 C-0.9479776 164.20932938 -0.85286132 168.41663019 -0.75 172.625 C-0.73582031 173.81480469 -0.72164062 175.00460938 -0.70703125 176.23046875 C-0.60581191 184.99265854 -0.60581191 184.99265854 4 192 C8.77928712 194.0404943 13.33436256 194.3357822 18.4609375 194.4140625 C19.25150543 194.43342865 20.04207336 194.4527948 20.8565979 194.4727478 C23.36262483 194.53216053 25.86869865 194.57877427 28.375 194.625 C30.08205043 194.66321513 31.78908231 194.70226889 33.49609375 194.7421875 C37.66391044 194.83783011 41.8318173 194.92200115 46 195 C46 195.66 46 196.32 46 197 C40.73478658 197.1242878 35.47044074 197.21466072 30.20410156 197.2746582 C28.41553864 197.29968775 26.62707683 197.33372244 24.83886719 197.37719727 C22.25690677 197.43836411 19.67630678 197.46632445 17.09375 197.48828125 C16.30383667 197.51408768 15.51392334 197.5398941 14.70007324 197.56648254 C9.55474934 197.56903871 6.11440185 196.41635358 1.7232666 193.76017761 C-2.61433199 189.32967109 -3.3768812 183.92295917 -3.43237305 177.96313477 C-3.44766052 176.96673729 -3.44766052 176.96673729 -3.46325684 175.95021057 C-3.49316488 173.78052087 -3.502618 171.61127419 -3.51171875 169.44140625 C-3.52858203 167.92681944 -3.54673447 166.41224649 -3.56611633 164.89768982 C-3.6134439 160.93088104 -3.64336427 156.96412847 -3.66955566 152.99713135 C-3.69944873 148.9413341 -3.74594881 144.88573013 -3.79101562 140.83007812 C-3.87685227 132.88681411 -3.94428427 124.94353215 -4 117 C-4.4439209 117.45439453 -4.8878418 117.90878906 -5.34521484 118.37695312 C-7.34994859 120.42313518 -9.36233216 122.4616229 -11.375 124.5 C-12.07367188 125.21542969 -12.77234375 125.93085938 -13.4921875 126.66796875 C-14.1625 127.34472656 -14.8328125 128.02148438 -15.5234375 128.71875 C-16.14138184 129.34716797 -16.75932617 129.97558594 -17.39599609 130.62304688 C-19 132 -19 132 -21 132 C-19.61403133 128.86594332 -18.00928844 126.78165818 -15.55859375 124.3984375 C-14.55989258 123.41617188 -14.55989258 123.41617188 -13.54101562 122.4140625 C-12.84685547 121.74117188 -12.15269531 121.06828125 -11.4375 120.375 C-10.05901463 119.03088131 -8.68260599 117.68462847 -7.30859375 116.3359375 C-6.69814209 115.74345215 -6.08769043 115.1509668 -5.45874023 114.54052734 C-3.90189218 113.04565952 -3.90189218 113.04565952 -3 111 C0.33234574 112.45241736 2.54225606 114.2850086 5.109375 116.84375 C5.86347656 117.59527344 6.61757812 118.34679687 7.39453125 119.12109375 C8.17183594 119.90613281 8.94914063 120.69117188 9.75 121.5 C10.54277344 122.28503906 11.33554688 123.07007813 12.15234375 123.87890625 C12.90128906 124.63042969 13.65023437 125.38195312 14.421875 126.15625 C15.10862305 126.84525391 15.79537109 127.53425781 16.50292969 128.24414062 C18 130 18 130 18 132 C13.7892875 130.36644648 11.01460465 127.23776995 7.9375 124.0625 C7.40833984 123.52431641 6.87917969 122.98613281 6.33398438 122.43164062 C4.8857315 120.95794792 3.44265261 119.47917546 2 118 C1.01 117.01 0.02 116.02 -1 115 C-1 129.19 -1 143.38 -1 158 C9.02375 157.8453125 9.02375 157.8453125 19.25 157.6875 C21.33344727 157.66260498 23.41689453 157.63770996 25.56347656 157.61206055 C39.63339464 157.37586832 51.14842289 156.21504883 63 148 C63.9075 147.38125 64.815 146.7625 65.75 146.125 C74.76184309 137.61381486 79.90116473 126.17044236 80.3125 113.8125 C80.05724534 102.97168441 77.31412067 93.80858809 71 85 C70.57074219 84.36449219 70.14148438 83.72898437 69.69921875 83.07421875 C66.53144345 78.85986282 63.50128018 77.3180962 58.6875 75.1875 C53.40946094 72.29853643 53.40946094 72.29853643 52.42431641 69.17431641 C51.91348439 65.35422011 51.99609426 61.55385623 52.03515625 57.70703125 C52.14825536 46.36249803 47.9041813 36.85336135 41.70703125 27.609375 C40 25 40 25 39 22 C38.34 22 37.68 22 37 22 C35.83981745 20.83981745 34.68292011 19.6761607 33.54296875 18.49609375 C23.08967308 8.36036656 9.0121156 2.93827611 -5.5 2.5625 C-23.47096 3.26724353 -38.33641434 9.35351011 -50.66601562 22.45263672 C-58.10420716 31.08061218 -62.06544337 41.164714 -65 52 C-65.5465625 51.71253906 -66.093125 51.42507812 -66.65625 51.12890625 C-69.22548466 49.89139156 -71.81813862 48.90635926 -74.5 47.9375 C-75.4384375 47.59589844 -76.376875 47.25429688 -77.34375 46.90234375 C-88.27923856 43.18749396 -98.97033437 44.50489602 -109.25 49.375 C-112.76307943 51.19080946 -115.35178697 53.02076034 -118 56 C-118.66 56 -119.32 56 -120 56 C-120.38478516 56.77923828 -120.38478516 56.77923828 -120.77734375 57.57421875 C-121.72882076 59.46197345 -122.70523056 61.33716927 -123.69140625 63.20703125 C-124.3153406 64.40873144 -124.93903251 65.61055753 -125.5625 66.8125 C-125.87896484 67.40353516 -126.19542969 67.99457031 -126.52148438 68.60351562 C-129.87773932 75.13788035 -130.13135985 81.20721604 -130.0625 88.4375 C-130.05347656 89.67371094 -130.04445312 90.90992187 -130.03515625 92.18359375 C-130.02355469 93.11300781 -130.01195312 94.04242188 -130 95 C-131.03898437 95.08636719 -132.07796875 95.17273438 -133.1484375 95.26171875 C-143.18352717 96.2194494 -152.19472227 97.52794147 -159.375 105.3125 C-165.86908336 113.75664805 -168.0085317 122.41751944 -167 133 C-164.84652937 141.47852149 -160.41257259 147.84490934 -153.25 152.8125 C-144.44029965 157.7592645 -134.29449459 157.3269915 -124.4609375 157.4140625 C-123.08516329 157.43281479 -121.70940009 157.45239107 -120.33364868 157.4727478 C-116.74666902 157.52364699 -113.15965223 157.5634958 -109.57250977 157.60089111 C-105.89851048 157.64119857 -102.2246576 157.69206619 -98.55078125 157.7421875 C-91.36724595 157.83942656 -84.18381566 157.91928297 -77 158 C-77.33 143.81 -77.66 129.62 -78 115 C-80.97 118.3 -83.94 121.6 -87 125 C-92.420625 130.67875 -92.420625 130.67875 -94 132 C-94.66 132 -95.32 132 -96 132 C-94.54758264 128.66765426 -92.7149914 126.45774394 -90.15625 123.890625 C-89.40472656 123.13652344 -88.65320313 122.38242188 -87.87890625 121.60546875 C-87.09386719 120.82816406 -86.30882813 120.05085938 -85.5 119.25 C-84.71496094 118.45722656 -83.92992188 117.66445312 -83.12109375 116.84765625 C-82.36957031 116.09871094 -81.61804688 115.34976563 -80.84375 114.578125 C-80.15474609 113.89137695 -79.46574219 113.20462891 -78.75585938 112.49707031 C-77 111 -77 111 -75 111 C-73.66015625 112.36328125 -73.66015625 112.36328125 -72.0625 114.3125 C-68.4631011 118.57534743 -64.5813202 122.4615561 -60.55688477 126.31762695 C-59.33509286 127.50909296 -58.16284669 128.75093864 -57 130 C-57 130.66 -57 131.32 -57 132 C-61.28127675 130.34139399 -64.04373116 127.21582144 -67.1875 124 C-67.73341797 123.4534375 -68.27933594 122.906875 -68.84179688 122.34375 C-72.85925752 118.28148496 -72.85925752 118.28148496 -74 116 C-74.00142502 116.87394913 -74.00285004 117.74789825 -74.00431824 118.64833069 C-74.02218014 126.90217268 -74.06388797 135.15548062 -74.13209057 143.4090662 C-74.16631778 147.65193248 -74.19146384 151.89444033 -74.19555664 156.13745117 C-74.19984887 160.23563319 -74.22838694 164.33300725 -74.27343178 168.43093681 C-74.28637748 169.99090295 -74.29072483 171.55096592 -74.28615379 173.11097908 C-74.25527779 186.85329522 -74.25527779 186.85329522 -77.16918945 191.32592773 C-83.44147026 197.25092055 -88.60520794 197.42126813 -96.8671875 197.29296875 C-97.90191193 197.28872391 -98.93663635 197.28447906 -100.00271606 197.28010559 C-103.29374681 197.26336996 -106.58415566 197.22572649 -109.875 197.1875 C-112.1119703 197.17244658 -114.34895023 197.15875933 -116.5859375 197.14648438 C-122.05750233 197.11348322 -127.52870672 197.06333468 -133 197 C-133 196.34 -133 195.68 -133 195 C-132.45178085 194.99413376 -131.90356171 194.98826752 -131.33872986 194.98222351 C-125.61163572 194.91808563 -119.88509294 194.83361435 -114.15844727 194.73754883 C-112.02375578 194.70437883 -109.88897827 194.67632242 -107.75415039 194.65356445 C-104.67817669 194.61987283 -101.60298574 194.56754897 -98.52734375 194.51171875 C-97.10505714 194.50213387 -97.10505714 194.50213387 -95.65403748 194.49235535 C-90.06997426 194.36959745 -85.78668125 194.01072183 -81 191 C-77.12488552 185.04750456 -77.45641583 178.49101946 -77.3125 171.5625 C-77.27833984 170.44939453 -77.24417969 169.33628906 -77.20898438 168.18945312 C-77.12697571 165.45973617 -77.05767163 162.7303214 -77 160 C-78.20030853 160.01665459 -78.20030853 160.01665459 -79.42486572 160.03364563 C-87.01460419 160.134378 -94.60401258 160.2102312 -102.1942482 160.25906086 C-106.09528678 160.28500997 -109.99576702 160.32013316 -113.89648438 160.37719727 C-117.67019787 160.43204966 -121.44337885 160.46153056 -125.21746063 160.47438622 C-126.64782836 160.48353187 -128.07817127 160.50138783 -129.50830841 160.52865028 C-140.95594111 160.73793416 -151.84448823 158.99922146 -160.47265625 150.79296875 C-165.36998768 145.04392751 -169.08993965 138.55214264 -170 131 C-170.17595703 129.67742187 -170.17595703 129.67742187 -170.35546875 128.328125 C-171.0393097 118.57371449 -167.31567457 110.05354339 -161.03515625 102.69921875 C-154.41773414 96.57974127 -146.84814817 92.84034249 -137.8125 92.9375 C-136.72582031 92.94652344 -135.63914063 92.95554687 -134.51953125 92.96484375 C-133.68808594 92.97644531 -132.85664063 92.98804687 -132 93 C-132.33 92.34 -132.66 91.68 -133 91 C-134.14732547 79.62078842 -131.62186271 68.42159125 -124.8203125 59.125 C-118.06890169 51.24352472 -109.52854884 43.87545579 -99 42 C-88.84861605 41.35022621 -80.37164772 41.63293967 -71 46 C-69.33623352 46.6738719 -67.67031774 47.34253451 -66 48 C-65.79375 46.741875 -65.5875 45.48375 -65.375 44.1875 C-61.96646567 28.9211068 -50.11663565 16.11572038 -37.375 7.75 C-25.38469026 1.04292049 -13.52415729 -1.00440917 0 0 Z " fill="#828282" transform="translate(197,13)"/>
<path d="M0 0 C1.33984375 1.36328125 1.33984375 1.36328125 2.9375 3.3125 C6.5368989 7.57534743 10.4186798 11.4615561 14.44311523 15.31762695 C15.66490714 16.50909296 16.83715331 17.75093864 18 19 C18 19.66 18 20.32 18 21 C13.71872325 19.34139399 10.95626884 16.21582144 7.8125 13 C7.26658203 12.4534375 6.72066406 11.906875 6.15820312 11.34375 C2.14074248 7.28148496 2.14074248 7.28148496 1 5 C0.99857498 5.87394913 0.99714996 6.74789825 0.99568176 7.64833069 C0.97781986 15.90217268 0.93611203 24.15548062 0.86790943 32.4090662 C0.83368222 36.65193248 0.80853616 40.89444033 0.80444336 45.13745117 C0.80015113 49.23563319 0.77161306 53.33300725 0.72656822 57.43093681 C0.71362252 58.99090295 0.70927517 60.55096592 0.71384621 62.11097908 C0.74472221 75.85329522 0.74472221 75.85329522 -2.16918945 80.32592773 C-8.44147026 86.25092055 -13.60520794 86.42126813 -21.8671875 86.29296875 C-22.90191193 86.28872391 -23.93663635 86.28447906 -25.00271606 86.28010559 C-28.29374681 86.26336996 -31.58415566 86.22572649 -34.875 86.1875 C-37.1119703 86.17244658 -39.34895023 86.15875933 -41.5859375 86.14648438 C-47.05750233 86.11348322 -52.52870672 86.06333468 -58 86 C-58 85.34 -58 84.68 -58 84 C-57.45178085 83.99413376 -56.90356171 83.98826752 -56.33872986 83.98222351 C-50.61163572 83.91808563 -44.88509294 83.83361435 -39.15844727 83.73754883 C-37.02375578 83.70437883 -34.88897827 83.67632242 -32.75415039 83.65356445 C-29.67817669 83.61987283 -26.60298574 83.56754897 -23.52734375 83.51171875 C-22.57915268 83.50532883 -21.63096161 83.4989389 -20.65403748 83.49235535 C-15.06997426 83.36959745 -10.78668125 83.01072183 -6 80 C-1.47579709 70.58842492 -1.47579709 70.58842492 -2 49 C-21.8 49 -41.6 49 -62 49 C-62 48.34 -62 47.68 -62 47 C-42.2 47 -22.4 47 -2 47 C-2.33 32.81 -2.66 18.62 -3 4 C-5.97 7.3 -8.94 10.6 -12 14 C-17.420625 19.67875 -17.420625 19.67875 -19 21 C-19.66 21 -20.32 21 -21 21 C-19.54758264 17.66765426 -17.7149914 15.45774394 -15.15625 12.890625 C-14.40472656 12.13652344 -13.65320313 11.38242188 -12.87890625 10.60546875 C-12.09386719 9.82816406 -11.30882812 9.05085937 -10.5 8.25 C-9.71496094 7.45722656 -8.92992187 6.66445312 -8.12109375 5.84765625 C-7.36957031 5.09871094 -6.61804688 4.34976563 -5.84375 3.578125 C-4.81024414 2.54800293 -4.81024414 2.54800293 -3.75585938 1.49707031 C-2 0 -2 0 0 0 Z " fill="#6F6F6F" transform="translate(122,124)"/>
<path d="M0 0 C3.33234574 1.45241736 5.54225606 3.2850086 8.109375 5.84375 C9.24052734 6.97103516 9.24052734 6.97103516 10.39453125 8.12109375 C11.17183594 8.90613281 11.94914062 9.69117188 12.75 10.5 C13.54277344 11.28503906 14.33554688 12.07007813 15.15234375 12.87890625 C16.27576172 14.00619141 16.27576172 14.00619141 17.421875 15.15625 C18.10862305 15.84525391 18.79537109 16.53425781 19.50292969 17.24414062 C21 19 21 19 21 21 C16.7892875 19.36644648 14.01460465 16.23776995 10.9375 13.0625 C10.40833984 12.52431641 9.87917969 11.98613281 9.33398438 11.43164062 C7.8857315 9.95794792 6.44265261 8.47917546 5 7 C4.01 6.01 3.02 5.02 2 4 C2 18.19 2 32.38 2 47 C17.18 47 32.36 47 48 47 C44.38730766 48.80634617 43.410026 49.24945799 39.69042969 49.22705078 C38.4295755 49.22682419 38.4295755 49.22682419 37.14324951 49.22659302 C36.24519592 49.21627045 35.34714233 49.20594788 34.421875 49.1953125 C33.4953009 49.1924826 32.56872681 49.18965271 31.61407471 49.18673706 C28.65925091 49.17555611 25.70473195 49.15045527 22.75 49.125 C20.74479605 49.11496751 18.73958734 49.10584213 16.734375 49.09765625 C11.82279949 49.07562358 6.91145141 49.04110795 2 49 C2.0520224 53.20932938 2.14713868 57.41663019 2.25 61.625 C2.26417969 62.81480469 2.27835938 64.00460938 2.29296875 65.23046875 C2.39418809 73.99265854 2.39418809 73.99265854 7 81 C11.77928712 83.0404943 16.33436256 83.3357822 21.4609375 83.4140625 C22.25150543 83.43342865 23.04207336 83.4527948 23.8565979 83.4727478 C26.36262483 83.53216053 28.86869865 83.57877427 31.375 83.625 C33.08205043 83.66321513 34.78908231 83.70226889 36.49609375 83.7421875 C40.66391044 83.83783011 44.8318173 83.92200115 49 84 C49 84.66 49 85.32 49 86 C43.73478658 86.1242878 38.47044074 86.21466072 33.20410156 86.2746582 C31.41553864 86.29968775 29.62707683 86.33372244 27.83886719 86.37719727 C25.25690677 86.43836411 22.67630678 86.46632445 20.09375 86.48828125 C19.30383667 86.51408768 18.51392334 86.5398941 17.70007324 86.56648254 C12.55474934 86.56903871 9.11440185 85.41635358 4.7232666 82.76017761 C0.38566801 78.32967109 -0.3768812 72.92295917 -0.43237305 66.96313477 C-0.4425647 66.29886978 -0.45275635 65.6346048 -0.46325684 64.95021057 C-0.49316488 62.78052087 -0.502618 60.61127419 -0.51171875 58.44140625 C-0.52858203 56.92681944 -0.54673447 55.41224649 -0.56611633 53.89768982 C-0.6134439 49.93088104 -0.64336427 45.96412847 -0.66955566 41.99713135 C-0.69944873 37.9413341 -0.74594881 33.88573013 -0.79101562 29.83007812 C-0.87685227 21.88681411 -0.94428427 13.94353215 -1 6 C-1.66588135 6.6815918 -1.66588135 6.6815918 -2.34521484 7.37695312 C-4.34994859 9.42313518 -6.36233216 11.4616229 -8.375 13.5 C-9.42300781 14.57314453 -9.42300781 14.57314453 -10.4921875 15.66796875 C-11.1625 16.34472656 -11.8328125 17.02148438 -12.5234375 17.71875 C-13.14138184 18.34716797 -13.75932617 18.97558594 -14.39599609 19.62304688 C-16 21 -16 21 -18 21 C-16.61403133 17.86594332 -15.00928844 15.78165818 -12.55859375 13.3984375 C-11.55989258 12.41617188 -11.55989258 12.41617188 -10.54101562 11.4140625 C-9.84685547 10.74117187 -9.15269531 10.06828125 -8.4375 9.375 C-7.05901463 8.03088131 -5.68260599 6.68462847 -4.30859375 5.3359375 C-3.39291626 4.44720947 -3.39291626 4.44720947 -2.45874023 3.54052734 C-0.90189218 2.04565952 -0.90189218 2.04565952 0 0 Z " fill="#707070" transform="translate(194,124)"/>
<path d="M0 0 C3.51423905 1.49137007 5.68476369 3.50557913 8.3125 6.25 C11.10563637 9.1216212 13.90334905 11.83383077 17 14.375 C20 17 20 17 21 20 C17.69050485 18.56588544 15.60335115 16.79026636 13.125 14.1875 C9.8826216 10.79416067 6.67466879 8.06222399 3 5 C2.67 51.2 2.34 97.4 2 145 C1.34 145 0.68 145 0 145 C-0.33 98.8 -0.66 52.6 -1 5 C-6.28 9.95 -11.56 14.9 -17 20 C-17.66 19.67 -18.32 19.34 -19 19 C-15.25884406 14.41708397 -11.40692278 10.47472033 -6.90234375 6.64453125 C-4.470997 4.5426894 -2.23645947 2.30634883 0 0 Z " fill="#6E6E6E" transform="translate(157,83)"/>
<path d="M0 0 C0.99 0.495 0.99 0.495 2 1 C2 7.27 2 13.54 2 20 C3.98 20.66 5.96 21.32 8 22 C10.5546875 23.9453125 10.5546875 23.9453125 12.875 26.125 C13.65617187 26.84945312 14.43734375 27.57390625 15.2421875 28.3203125 C15.82226562 28.87460938 16.40234375 29.42890625 17 30 C16.67 30.66 16.34 31.32 16 32 C14.47005208 30.60026042 12.94010417 29.20052083 11.41015625 27.80078125 C7.86315761 25.15059264 3.87052312 23.15029062 0 21 C0 14.07 0 7.14 0 0 Z " fill="#7B7B7B" transform="translate(250,63)"/>
<path d="M0 0 C0.67417969 0.67675781 1.34835938 1.35351562 2.04296875 2.05078125 C4.19871152 4.20804483 6.37167438 6.34682064 8.55078125 8.48046875 C9.80476385 9.71606836 11.05866883 10.95174673 12.3125 12.1875 C12.95767578 12.81591797 13.60285156 13.44433594 14.26757812 14.09179688 C14.87666016 14.69443359 15.48574219 15.29707031 16.11328125 15.91796875 C16.66798096 16.46219482 17.22268066 17.0064209 17.79418945 17.56713867 C19 19 19 19 19 21 C14.80998385 19.36437924 12.01766101 16.27696844 8.9375 13.125 C8.40833984 12.59519531 7.87917969 12.06539062 7.33398438 11.51953125 C0 4.10272898 0 4.10272898 0 0 Z " fill="#858585" transform="translate(121,124)"/>
<path d="M0 0 C0.66 0.33 1.32 0.66 2 1 C-11.53622353 16.57292383 -11.53622353 16.57292383 -19 20 C-16.58873748 15.33248469 -13.36513499 12.31162779 -9.5 8.875 C-8.34333922 7.83118417 -7.18707618 6.78692741 -6.03125 5.7421875 C-5.52142578 5.2869873 -5.01160156 4.83178711 -4.48632812 4.36279297 C-2.94564999 2.95016726 -1.46773166 1.48796492 0 0 Z " fill="#7E7E7E" transform="translate(157,83)"/>
<path d="M0 0 C0.66 0.66 1.32 1.32 2 2 C-0.61691164 4.67470955 -3.24481708 7.33834481 -5.875 10 C-6.62136719 10.763125 -7.36773437 11.52625 -8.13671875 12.3125 C-8.85214844 13.034375 -9.56757813 13.75625 -10.3046875 14.5 C-11.2944458 15.50546875 -11.2944458 15.50546875 -12.30419922 16.53125 C-14 18 -14 18 -16 18 C-14.6415798 14.95667235 -13.11536976 12.87690849 -10.7421875 10.546875 C-10.11699219 9.928125 -9.49179688 9.309375 -8.84765625 8.671875 C-8.19667969 8.03765625 -7.54570312 7.4034375 -6.875 6.75 C-6.21628906 6.1003125 -5.55757812 5.450625 -4.87890625 4.78125 C-3.25703357 3.18288273 -1.6306719 1.58938103 0 0 Z " fill="#848484" transform="translate(192,127)"/>
<path d="M0 0 C2.89852365 1.31307372 4.98277217 2.72684638 7.234375 4.96875 C8.09482422 5.82533203 8.09482422 5.82533203 8.97265625 6.69921875 C9.85244141 7.59060547 9.85244141 7.59060547 10.75 8.5 C11.35199219 9.09425781 11.95398438 9.68851563 12.57421875 10.30078125 C13.14269531 10.87183594 13.71117187 11.44289062 14.296875 12.03125 C14.81604492 12.55267578 15.33521484 13.07410156 15.87011719 13.61132812 C17 15 17 15 17 17 C12.73826965 15.33864749 9.96008467 12.25564682 6.8125 9.0625 C6.26658203 8.52431641 5.72066406 7.98613281 5.15820312 7.43164062 C2.72700686 4.98839382 1.10422024 3.31266073 0 0 Z " fill="#838383" transform="translate(198,128)"/>
<path d="M0 0 C2.34464192 1.98784858 4.67659961 3.98747712 7 6 C7.8765625 6.75796875 8.753125 7.5159375 9.65625 8.296875 C10.5534375 9.08578125 11.450625 9.8746875 12.375 10.6875 C13.22835937 11.43386719 14.08171875 12.18023437 14.9609375 12.94921875 C17 15 17 15 18 18 C14.71914717 16.57417482 12.64496065 14.83258594 10.1875 12.25 C6.62666427 8.58895313 2.92236569 5.26863807 -1 2 C-0.67 1.34 -0.34 0.68 0 0 Z " fill="#7B7B7B" transform="translate(160,85)"/>
<path d="M0 0 C0.66 0.66 1.32 1.32 2 2 C-0.28356246 4.34138543 -2.57813374 6.67166982 -4.875 9 C-5.85146484 10.00160156 -5.85146484 10.00160156 -6.84765625 11.0234375 C-7.47285156 11.65507812 -8.09804687 12.28671875 -8.7421875 12.9375 C-9.3182373 13.52402344 -9.89428711 14.11054688 -10.48779297 14.71484375 C-12 16 -12 16 -14 16 C-12.34136495 11.67495164 -9.128959 8.90581175 -5.875 5.75 C-5.31167969 5.19570312 -4.74835938 4.64140625 -4.16796875 4.0703125 C-2.78313972 2.70895515 -1.39216796 1.35385141 0 0 Z " fill="#848484" transform="translate(115,129)"/>
<path d="M0 0 C-0.33 0.99 -0.66 1.98 -1 3 C-1.5465625 2.71125 -2.093125 2.4225 -2.65625 2.125 C-5.22368471 0.89263134 -7.81376435 -0.05538966 -10.5 -1 C-13.79079467 -2.15720252 -16.9139709 -3.369645 -20 -5 C-12.86934548 -7.37688484 -6.350407 -3.06220693 0 0 Z " fill="#8C8C8C" transform="translate(133,62)"/>
<path d="M0 0 C0.99 0 1.98 0 3 0 C2.37888849 4.03722478 0.53627194 6.84679705 -2 10 C-5.25 11.375 -5.25 11.375 -8 12 C-8.66 11.34 -9.32 10.68 -10 10 C-8.906875 9.649375 -7.81375 9.29875 -6.6875 8.9375 C-3.53564713 7.62316459 -2.37683541 6.46435287 -1.0625 3.3125 C-0.711875 2.219375 -0.36125 1.12625 0 0 Z " fill="#878787" transform="translate(119,197)"/>
<path d="M0 0 C0.66 0 1.32 0 2 0 C0.50441148 4.62272814 -1.68171219 7.52369849 -5 11 C-7.1640625 11.671875 -7.1640625 11.671875 -9 12 C-7 9.33333333 -5 6.66666667 -3 4 C-2.48050781 3.25234375 -1.96101563 2.5046875 -1.42578125 1.734375 C-0.95527344 1.16203125 -0.48476563 0.5896875 0 0 Z " fill="#818181" transform="translate(271,149)"/>
<path d="M0 0 C0.33 0 0.66 0 1 0 C1.10957031 0.54527344 1.21914063 1.09054688 1.33203125 1.65234375 C2.51009937 7.25535065 4.087035 12.6054387 6 18 C5.34 18.33 4.68 18.66 4 19 C0.48935892 12.511583 -0.55253221 7.35174806 0 0 Z " fill="#7C7C7C" transform="translate(28,139)"/>
<path d="M0 0 C1.17755859 -0.02126953 1.17755859 -0.02126953 2.37890625 -0.04296875 C4.4375 0.1875 4.4375 0.1875 6.4375 2.1875 C4.48060341 2.40892255 2.52188048 2.6142568 0.5625 2.8125 C-1.07332031 2.98652344 -1.07332031 2.98652344 -2.7421875 3.1640625 C-4.13824219 3.17566406 -4.13824219 3.17566406 -5.5625 3.1875 C-6.2225 2.5275 -6.8825 1.8675 -7.5625 1.1875 C-4.76092552 0.25364184 -2.90802197 0.02395405 0 0 Z " fill="#8D8D8D" transform="translate(57.5625,105.8125)"/>
<path d="M0 0 C-1.39347764 2.78695528 -3.15492847 3.22510909 -5.9375 4.5625 C-6.83339844 4.99691406 -7.72929688 5.43132812 -8.65234375 5.87890625 C-9.81443359 6.43384766 -9.81443359 6.43384766 -11 7 C-11.99 7.495 -11.99 7.495 -13 8 C-10.95058999 2.26165198 -5.98766709 -0.70443142 0 0 Z " fill="#7D7D7D" transform="translate(52,108)"/>
<path d="M0 0 C0.66 0.33 1.32 0.66 2 1 C-0.97 4.3 -3.94 7.6 -7 11 C-7.33 10.01 -7.66 9.02 -8 8 C-5.36 5.36 -2.72 2.72 0 0 Z " fill="#848484" transform="translate(157,83)"/>
<path d="M0 0 C1.36511719 0.29197266 1.36511719 0.29197266 2.7578125 0.58984375 C3.45648438 0.74582031 4.15515625 0.90179688 4.875 1.0625 C4.875 1.7225 4.875 2.3825 4.875 3.0625 C3.43663249 2.94791307 1.99929034 2.82040884 0.5625 2.6875 C-0.23800781 2.61789063 -1.03851563 2.54828125 -1.86328125 2.4765625 C-4.125 2.0625 -4.125 2.0625 -7.125 0.0625 C-4.4030754 -1.2984623 -2.9418043 -0.64116248 0 0 Z " fill="#8D8D8D" transform="translate(55.125,169.9375)"/>
<path d="M0 0 C0.66 0.66 1.32 1.32 2 2 C1.63834656 6.41217199 0.94621815 10.67443132 0 15 C-0.33 15 -0.66 15 -1 15 C-1.02703381 13.06257659 -1.04641125 11.12504521 -1.0625 9.1875 C-1.07410156 8.10855469 -1.08570312 7.02960938 -1.09765625 5.91796875 C-1 3 -1 3 0 0 Z " fill="#909090" transform="translate(28,129)"/>
<path d="M0 0 C2.81870287 2.81870287 2.7303841 5.09056945 3 9 C2.015625 11.2265625 2.015625 11.2265625 1 13 C0.63901937 11.02206479 0.28638652 9.04260427 -0.0625 7.0625 C-0.25972656 5.96035156 -0.45695312 4.85820313 -0.66015625 3.72265625 C-0.77230469 2.82417969 -0.88445312 1.92570312 -1 1 C-0.67 0.67 -0.34 0.34 0 0 Z " fill="#8F8F8F" transform="translate(276,108)"/>
<path d="M0 0 C0 0.33 0 0.66 0 1 C-2.12254855 1.38863565 -4.24816828 1.76053209 -6.375 2.125 C-8.15003906 2.43824219 -8.15003906 2.43824219 -9.9609375 2.7578125 C-10.96382812 2.83773438 -11.96671875 2.91765625 -13 3 C-13.66 2.34 -14.32 1.68 -15 1 C-9.42567486 -0.66251802 -5.6932495 -1.18609365 0 0 Z " fill="#8B8B8B" transform="translate(185,15)"/>
<path d="M0 0 C0.9075 0.78375 1.815 1.5675 2.75 2.375 C5.05190236 4.30052496 7.21577207 5.82205741 10 7 C8.375 7.75 8.375 7.75 6 8 C0.288 4.864 0.288 4.864 -1 1 C-0.67 0.67 -0.34 0.34 0 0 Z " fill="#878787" transform="translate(197,201)"/>
<path d="M0 0 C3.26008643 3.16952847 6.22237877 6.39937989 9 10 C5.54537888 9.74410214 4.72618453 8.71373837 2.25 6.125 C0 3 0 3 0 0 Z " fill="#7C7C7C" transform="translate(121,124)"/>
<path d="M0 0 C0 0.99 0 1.98 0 3 C-3.63 2.34 -7.26 1.68 -11 1 C-6.8204355 -1.78637633 -4.85331323 -0.79562512 0 0 Z " fill="#959595" transform="translate(209,15)"/>
<path d="M0 0 C0.33 0.66 0.66 1.32 1 2 C-0.98 4.64 -2.96 7.28 -5 10 C-5.33 9.01 -5.66 8.02 -6 7 C-4.78515625 5.17578125 -4.78515625 5.17578125 -3.0625 3.3125 C-2.49660156 2.68988281 -1.93070312 2.06726563 -1.34765625 1.42578125 C-0.90292969 0.95527344 -0.45820312 0.48476562 0 0 Z " fill="#7D7D7D" transform="translate(77,67)"/>
<path d="M0 0 C0.33 0.66 0.66 1.32 1 2 C-6.625 3.25 -6.625 3.25 -10 1 C-6.61981469 -0.04005702 -3.5219721 -0.08004482 0 0 Z " fill="#8E8E8E" transform="translate(104,55)"/>
<path d="M0 0 C0.99 0 1.98 0 3 0 C4.25 6.625 4.25 6.625 2 10 C1.34 6.7 0.68 3.4 0 0 Z " fill="#909090" transform="translate(247,56)"/>
<path d="M0 0 C5.875 4.625 5.875 4.625 7 8 C4.13792848 6.71700242 1.9754912 5.469364 0 3 C0 2.01 0 1.02 0 0 Z " fill="#868686" transform="translate(171,95)"/>
<path d="M0 0 C3.875 1.75 3.875 1.75 5 4 C3.35 4.33 1.7 4.66 0 5 C-0.33 4.01 -0.66 3.02 -1 2 C-0.67 1.34 -0.34 0.68 0 0 Z " fill="#757575" transform="translate(194,124)"/>
</svg>
