<?xml version="1.0" encoding="UTF-8"?>
<svg version="1.1" xmlns="http://www.w3.org/2000/svg" width="236" height="216">
<path d="M0 0 C77.88 0 155.76 0 236 0 C236 71.28 236 142.56 236 216 C158.12 216 80.24 216 0 216 C0 144.72 0 73.44 0 0 Z " fill="#FEFEFE" transform="translate(0,0)"/>
<path d="M0 0 C8.68989284 0.99058019 17.31896066 1.22370858 26.0625 1.25 C27.3002417 1.25902344 28.5379834 1.26804687 29.81323242 1.27734375 C36.20486703 1.25640616 41.68329141 0.77944765 47.8125 -1 C49.1325 -1 50.4525 -1 51.8125 -1 C53.54517902 20.8510077 44.01651654 41.09982975 30.62109375 57.71875 C18.26086662 72.04688449 2.41581201 82.8176786 -16.84765625 84.27734375 C-31.14173089 84.64087566 -43.70439147 81.59598607 -54.578125 71.859375 C-58.90010802 67.28127447 -62.6095898 62.1873959 -64.1875 56 C-62.86353434 52.02810302 -60.3897807 50.81886411 -57 48.6875 C-56.06148193 48.09364502 -56.06148193 48.09364502 -55.10400391 47.48779297 C-38.95792989 37.53838584 -21.99208125 33.63991227 -3.1875 34 C-3.1875 33.34 -3.1875 32.68 -3.1875 32 C-24.00128299 33.30871526 -40.11611558 37.58779472 -58.1875 48 C-59.51811788 48.75930963 -60.84884136 49.51843425 -62.1796875 50.27734375 C-63.17226562 50.84582031 -64.16484375 51.41429687 -65.1875 52 C-67.74931634 46.87636731 -66.74327839 39.42954552 -65.50390625 34.01171875 C-60.84649045 20.34867738 -51.83121595 10.35831471 -39.24609375 3.4765625 C-26.6115168 -2.62288844 -13.54698995 -1.56210846 0 0 Z " fill="#FDFDFD" transform="translate(145.1875,22)"/>
<path d="M0 0 C0.80642169 24.93933746 -6.99929999 46.11605843 -23.1875 65.1875 C-36.34542647 79.05235146 -52.53255023 89.57227455 -72.02148438 90.32983398 C-85.57920109 90.60461242 -99.28244545 87.05639333 -109.5078125 77.70703125 C-114.289709 72.61738893 -117.97672473 67.28962794 -121 61 C-126.96201789 67.22699646 -131.88356825 73.41285128 -136 81 C-136.66 80.67 -137.32 80.34 -138 80 C-134.67192605 72.67823731 -130.56459529 65.92440217 -124.28125 60.76953125 C-121.09351504 56.89949001 -121.58348379 54.19564628 -121.9375 49.375 C-122.36035155 37.17726481 -118.94023421 28.37183778 -111 19 C-100.90388554 8.25098224 -89.13418612 1.21617701 -74.1953125 0.734375 C-72.50521908 0.72640912 -70.81501757 0.73211622 -69.125 0.75 C-68.21298828 0.75386719 -67.30097656 0.75773437 -66.36132812 0.76171875 C-60.35196701 0.83657584 -54.46339054 1.27960731 -48.5 2 C-31.54401921 4.04487055 -16.35929351 0 0 0 Z M-109.921875 20.328125 C-116.17348859 28.3659139 -120.12990605 37.41935278 -120.1875 47.625 C-120.20167969 48.77226563 -120.21585938 49.91953125 -120.23046875 51.1015625 C-120.30529658 54.12725901 -120.30529658 54.12725901 -118 56 C-117.21238281 55.49210937 -116.42476562 54.98421875 -115.61328125 54.4609375 C-96.74167559 42.53497605 -79.0908357 37.55578173 -57 36 C-57 36.66 -57 37.32 -57 38 C-57.85658203 37.96519531 -57.85658203 37.96519531 -58.73046875 37.9296875 C-65.99518678 37.76799266 -72.86734922 38.66528466 -80 40 C-80.96808594 40.17144531 -81.93617187 40.34289063 -82.93359375 40.51953125 C-95.81693002 43.22905245 -107.64406693 50.03389764 -118 58 C-115.15759856 68.77120545 -109.46316026 76.08012349 -100 82 C-85.8701496 89.0376475 -71.38508374 90.11523821 -56.34375 85.25390625 C-46.12354025 81.42132759 -38.11392108 76.28833928 -30 69 C-29.36449219 68.44699219 -28.72898437 67.89398438 -28.07421875 67.32421875 C-13.33692003 53.67104316 -4.69530025 33.62597267 -2 14 C-1.93611612 12.04259807 -1.91361831 10.08329853 -1.9375 8.125 C-1.94652344 7.15820312 -1.95554687 6.19140625 -1.96484375 5.1953125 C-1.97644531 4.47085937 -1.98804688 3.74640625 -2 3 C-6.70012262 3.63308315 -6.70012262 3.63308315 -11.35522461 4.5246582 C-16.6894122 5.48336431 -22.15824983 5.19025815 -27.5625 5.1875 C-29.51192505 5.1884668 -29.51192505 5.1884668 -31.50073242 5.18945312 C-38.99644933 5.14870798 -46.36625784 4.85689109 -53.8125 4 C-75.62989937 1.5057609 -93.9168215 3.63220588 -109.921875 20.328125 Z " fill="#838383" transform="translate(199,18)"/>
<path d="M0 0 C4.38820134 0.36568344 5.79395984 1.10308497 8.75 4.3125 C11.08680754 9.83265667 11.6311479 15.66481546 12.375 21.5625 C12.5090625 22.54863281 12.643125 23.53476563 12.78125 24.55078125 C13.59344438 30.84114381 13.9227271 36.97219414 13.75 43.3125 C14.905 43.333125 16.06 43.35375 17.25 43.375 C22.94703035 44.14056952 25.82876695 47.33898385 29.75 51.3125 C31.39889688 52.97813695 33.04863279 54.64291211 34.70043945 56.30566406 C35.8387955 57.45697961 36.97043342 58.61498556 38.09448242 59.78027344 C42.77262309 64.56588395 46.55591754 67.43207771 53.375 68.25 C66.11308829 70.23009451 75.20034441 74.74756576 83.22265625 85.23828125 C87.6233924 92.51706537 89.20195107 99.28988019 89.04296875 107.625 C89.03872391 108.47932617 89.03447906 109.33365234 89.03010559 110.21386719 C89.01345703 112.91374682 88.97583223 115.61285011 88.9375 118.3125 C88.92243523 120.15493705 88.90874998 121.99738593 88.89648438 123.83984375 C88.86359906 128.33102339 88.81191456 132.82163056 88.75 137.3125 C88.09 137.3125 87.43 137.3125 86.75 137.3125 C86.7406543 136.21897217 86.73130859 135.12544434 86.72167969 133.9987793 C86.68142656 129.89258967 86.61557496 125.78712182 86.54248047 121.68139648 C86.51447367 119.91358806 86.49315955 118.14565914 86.47900391 116.37768555 C86.35918243 102.25073354 85.57460135 91.0806793 75.21875 80.47265625 C68.14734138 74.28517371 60.73266637 72.63305827 51.55859375 71.37890625 C41.46509008 68.55272522 34.87795827 60.67197186 28.05664062 53.15039062 C23.52313051 48.3085286 23.52313051 48.3085286 17.4140625 46.21484375 C13.74799651 46.07719051 13.74799651 46.07719051 10.6875 47.6875 C8.15533297 51.11817791 8.50855095 52.87496594 9.07662964 56.96975708 C10.25413481 61.06645047 12.90403299 63.41780659 15.97265625 66.24609375 C16.90276772 67.15211082 16.90276772 67.15211082 17.85166931 68.07643127 C19.82047496 69.987581 21.81465814 71.86926719 23.8125 73.75 C25.80829208 75.66080346 27.79836324 77.57724162 29.78404236 79.49855042 C31.01787267 80.68892928 32.25857789 81.87223039 33.50660706 83.04771423 C34.95805668 84.43152649 36.35947189 85.86748307 37.75 87.3125 C37.75 87.9725 37.75 88.6325 37.75 89.3125 C33.60850615 87.67806014 30.81880268 84.66991695 27.7421875 81.5703125 C27.17549347 81.00553192 26.60879944 80.44075134 26.02493286 79.8588562 C24.83073052 78.666012 23.63903877 77.47064973 22.44970703 76.27294922 C20.63140692 74.44394464 18.80269454 72.62584488 16.97265625 70.80859375 C15.8118582 69.64647404 14.65168075 68.48373406 13.4921875 67.3203125 C12.67341629 66.50761398 12.67341629 66.50761398 11.83810425 65.67849731 C8.03803261 61.83121794 6.00753364 59.29918809 5.3125 53.9375 C5.75 50.3125 5.75 50.3125 8.3125 47.8125 C10.39157459 45.55673351 10.73950145 44.4577618 10.96484375 41.33984375 C10.72326249 37.30324046 10.28132522 33.31864224 9.75 29.3125 C9.64059082 28.42788086 9.53118164 27.54326172 9.41845703 26.63183594 C9.06507297 23.79398059 8.6938843 20.95922323 8.3125 18.125 C8.19068359 17.21613037 8.06886719 16.30726074 7.94335938 15.37084961 C7.81896484 14.51241455 7.69457031 13.65397949 7.56640625 12.76953125 C7.45756104 12.00616455 7.34871582 11.24279785 7.23657227 10.45629883 C6.70215367 8.10169287 6.0682486 6.3399558 4.75 4.3125 C1.38239813 3.1408633 1.38239813 3.1408633 -2.25 3.3125 C-5.21394637 5.46045638 -6.14264017 6.6848736 -6.7646637 10.32122803 C-6.77086227 11.49622864 -6.77706085 12.67122925 -6.78344727 13.88183594 C-6.79206284 14.5328125 -6.80067841 15.18378906 -6.80955505 15.85449219 C-6.83221909 18.00236019 -6.82547341 20.148923 -6.81640625 22.296875 C-6.82164399 23.79657375 -6.82792103 25.29626919 -6.83518982 26.79595947 C-6.84559647 29.9399769 -6.84103268 33.08354188 -6.82641602 36.22753906 C-6.80928021 40.24035941 -6.83265527 44.25174086 -6.86790562 48.26440048 C-6.88996585 51.36331524 -6.88841666 54.4618908 -6.8801403 57.56085968 C-6.87932445 59.03912172 -6.88611745 60.5174096 -6.90091133 61.99559784 C-6.97056473 70.21945169 -6.91472792 76.88031173 -1.25 83.3125 C-0.38785889 84.38081055 -0.38785889 84.38081055 0.49169922 85.47070312 C1.00748535 86.00630859 1.52327148 86.54191406 2.0546875 87.09375 C2.63492676 87.70428223 3.21516602 88.31481445 3.81298828 88.94384766 C4.70993408 89.86883057 4.70993408 89.86883057 5.625 90.8125 C6.87063265 92.12159613 8.11543386 93.43148393 9.359375 94.7421875 C9.94783203 95.35932617 10.53628906 95.97646484 11.14257812 96.61230469 C14.11554487 99.75685821 16.95928113 103.00619378 19.75 106.3125 C20.554375 107.26125 21.35875 108.21 22.1875 109.1875 C23.75 111.3125 23.75 111.3125 23.75 113.3125 C20.362801 111.8736898 18.3905896 110.09130501 16 107.3125 C15.07960938 106.260625 15.07960938 106.260625 14.140625 105.1875 C12.75 103.3125 12.75 103.3125 12.75 101.3125 C11.265 100.8175 11.265 100.8175 9.75 100.3125 C8.29092979 98.70090371 6.90457379 97.02275332 5.5625 95.3125 C1.9973299 90.82691017 -1.69505039 86.55472928 -5.62109375 82.3828125 C-9.06355007 78.0075083 -9.50789827 73.9582067 -9.55639648 68.49023438 C-9.56472 67.82453934 -9.57304352 67.1588443 -9.58161926 66.47297668 C-9.60561168 64.28400746 -9.61447632 62.09533654 -9.62109375 59.90625 C-9.6300657 58.3783764 -9.63918765 56.85050368 -9.64845276 55.32263184 C-9.66491417 52.12505969 -9.67263811 48.92759194 -9.67553711 45.72998047 C-9.68092943 41.63741484 -9.71865515 37.54583225 -9.76428127 33.45354462 C-9.79404964 30.29991075 -9.80126054 27.14651423 -9.80226326 23.99275208 C-9.80646321 22.48406961 -9.81888872 20.9753863 -9.83978081 19.46684265 C-9.86670456 17.3554162 -9.86187111 15.24627729 -9.84936523 13.13476562 C-9.85443588 11.93517212 -9.85950653 10.73557861 -9.86473083 9.49963379 C-9.07728382 5.41703562 -7.37247226 3.95401858 -4.25 1.3125 C-3.25 0.3125 -3.25 0.3125 0 0 Z " fill="#7E7E7E" transform="translate(22.25,65.6875)"/>
<path d="M0 0 C4.64214547 0.46421455 5.83538551 1.86031782 8.75 5.375 C9.245 5.87 9.245 5.87 9.75 6.375 C9.86000319 8.45432809 9.89913186 10.53742767 9.91113281 12.61962891 C9.91858017 13.59784607 9.91858017 13.59784607 9.92617798 14.5958252 C9.94084157 16.76441489 9.94761103 18.93293126 9.953125 21.1015625 C9.95887619 22.6079407 9.96463392 24.11431887 9.97039795 25.62069702 C9.98092203 28.78668561 9.98675442 31.95264871 9.99023438 35.11865234 C9.99570022 39.16378201 10.01968086 43.20857184 10.04820633 47.25359535 C10.06689541 50.36954708 10.07204179 53.48541833 10.07357025 56.60142136 C10.07658684 58.09167703 10.08458166 59.58193162 10.09775543 61.07213211 C10.11493613 63.1663455 10.11290632 65.25974737 10.10644531 67.35400391 C10.11191376 69.13818222 10.11191376 69.13818222 10.11749268 70.95840454 C9.44170207 77.24125934 6.85725042 81.73434004 2.5 86.3125 C1.70078125 87.1684375 0.9015625 88.024375 0.078125 88.90625 C-0.69015625 89.7209375 -1.4584375 90.535625 -2.25 91.375 C-7.09340255 96.75655839 -11.6886179 102.32251764 -16.234375 107.95703125 C-19.46066294 111.82732628 -19.46066294 111.82732628 -21.25 113.375 C-21.91 113.375 -22.57 113.375 -23.25 113.375 C-21.89891034 110.41174056 -20.36293352 108.16714835 -18.1875 105.75 C-17.56746094 105.05648437 -16.94742188 104.36296875 -16.30859375 103.6484375 C-15.62925781 102.89820313 -14.94992188 102.14796875 -14.25 101.375 C-13.51910156 100.56289062 -12.78820312 99.75078125 -12.03515625 98.9140625 C-11.28105469 98.07617188 -10.52695313 97.23828125 -9.75 96.375 C-8.61304688 95.11042969 -8.61304688 95.11042969 -7.453125 93.8203125 C-6.07350311 92.28903005 -4.68886254 90.76223789 -3.296875 89.2421875 C-2.70390625 88.58476562 -2.1109375 87.92734375 -1.5 87.25 C-0.98953125 86.69054687 -0.4790625 86.13109375 0.046875 85.5546875 C0.60890625 84.83539063 1.1709375 84.11609375 1.75 83.375 C2.15852707 82.90726166 2.56705414 82.43952332 2.98796082 81.95761108 C8.06437014 75.27737367 7.45892484 67.85474243 7.37890625 59.859375 C7.37973606 58.35581287 7.38219969 56.85225084 7.38621521 55.34869385 C7.38906154 52.21167402 7.37448079 49.07537286 7.34692383 45.93847656 C7.3127236 41.92102228 7.31890868 37.90484192 7.3375864 33.88732529 C7.34815653 30.78856803 7.3392207 27.69010696 7.32420158 24.59137726 C7.31902725 23.10983408 7.31949251 21.6282599 7.32574654 20.14672089 C7.33120414 18.07858175 7.310816 16.01226697 7.28344727 13.94433594 C7.27724869 12.76933533 7.27105011 11.59433472 7.2646637 10.38372803 C6.64376703 6.75396119 5.66745953 5.560676 2.75 3.375 C-0.3138206 2.93731134 -2.25094302 2.69230349 -4.8605957 4.47558594 C-6.89772361 7.26048404 -7.00009853 9.79543213 -7.41796875 13.203125 C-7.54477776 14.20397125 -7.54477776 14.20397125 -7.67414856 15.22503662 C-7.85055685 16.63642651 -8.02079989 18.04859879 -8.18530273 19.46142578 C-8.43517295 21.6050365 -8.70310458 23.74575176 -8.97460938 25.88671875 C-10.18853913 35.10295438 -10.18853913 35.10295438 -10.25 44.375 C-9.0125 45.86 -9.0125 45.86 -7.75 47.375 C-5.25 50.375 -5.25 50.375 -4.6875 53.875 C-5.76748567 60.59491081 -10.6004977 65.02592335 -15.2578125 69.6484375 C-15.82450653 70.21704498 -16.39120056 70.78565247 -16.97506714 71.37149048 C-18.16435375 72.56212965 -19.35613594 73.75028085 -20.55029297 74.93603516 C-22.38357158 76.75852112 -24.2058324 78.59154233 -26.02734375 80.42578125 C-27.18685856 81.58397586 -28.34699287 82.74155067 -29.5078125 83.8984375 C-30.05365997 84.44833344 -30.59950745 84.99822937 -31.16189575 85.56478882 C-35.02003604 89.375 -35.02003604 89.375 -37.25 89.375 C-35.63770281 85.21367273 -32.57783873 82.5690012 -29.40234375 79.578125 C-28.22777965 78.4434697 -27.05397475 77.30802807 -25.88085938 76.171875 C-24.03623118 74.395221 -22.18701201 72.62453969 -20.32397461 70.8671875 C-18.52138342 69.16185928 -16.74210349 67.43478745 -14.96484375 65.703125 C-14.40756088 65.18824524 -13.85027802 64.67336548 -13.27610779 64.1428833 C-10.40835718 61.3140983 -8.90432482 59.20037652 -8.26391602 55.16699219 C-7.88972539 51.28903577 -7.88972539 51.28903577 -10.3125 48.375 C-13.07872084 46.25458299 -13.07872084 46.25458299 -16.0625 45.625 C-22.2406993 47.07869395 -26.0798582 52.15908562 -30.37109375 56.59375 C-31.2062854 57.44900269 -31.2062854 57.44900269 -32.05834961 58.3215332 C-33.16001164 59.4553118 -34.25131152 60.59928204 -35.33032227 61.75463867 C-41.51981374 68.16466973 -48.14355401 70.64145889 -56.75 72.3125 C-67.22158605 74.59433428 -73.95962379 78.47330359 -80.25 87.375 C-86.21127252 97.52320706 -86.02733916 107.7371502 -86.0625 119.125 C-86.08569013 120.90107176 -86.11106468 122.67711641 -86.13867188 124.453125 C-86.20094429 128.7605182 -86.23373572 133.06719749 -86.25 137.375 C-86.91 137.375 -87.57 137.375 -88.25 137.375 C-88.37486865 132.04061134 -88.46492871 126.70709842 -88.5246582 121.37158203 C-88.54959214 119.56186071 -88.58355243 117.75223786 -88.62719727 115.94287109 C-88.93620114 102.79021221 -88.55563329 91.08313603 -78.9375 80.9375 C-70.77718606 72.49252394 -62.74545044 69.5768638 -51.25 68.03515625 C-45.5486812 66.78056917 -41.6568474 64.15874049 -37.6484375 59.99609375 C-36.82859375 59.15755859 -36.00875 58.31902344 -35.1640625 57.45507812 C-34.32617188 56.58302734 -33.48828125 55.71097656 -32.625 54.8125 C-30.94999871 53.07749485 -29.27048842 51.34682849 -27.5859375 49.62109375 C-26.84907715 48.85466553 -26.1122168 48.0882373 -25.35302734 47.29858398 C-22.22026372 44.43312721 -20.25714839 43.41373648 -16 43.25 C-15.0925 43.29125 -14.185 43.3325 -13.25 43.375 C-13.26957764 42.81337158 -13.28915527 42.25174316 -13.30932617 41.6730957 C-13.45116357 34.18873409 -12.61635737 26.96372817 -11.5625 19.5625 C-11.41361328 18.36173828 -11.26472656 17.16097656 -11.11132812 15.92382812 C-9.72767537 6.18399797 -9.72767537 6.18399797 -6.66796875 3.11328125 C-5.47107422 2.25283203 -5.47107422 2.25283203 -4.25 1.375 C-3.25 0.375 -3.25 0.375 0 0 Z " fill="#7E7E7E" transform="translate(221.25,65.625)"/>
<path d="M0 0 C0.33 0 0.66 0 1 0 C1.00142502 0.80908813 1.00285004 1.61817627 1.00431824 2.45178223 C1.02219793 10.10200877 1.06395728 17.75156605 1.13209057 25.40149689 C1.16628325 29.33382187 1.19145839 33.26576155 1.19555664 37.19824219 C1.19985639 40.99819782 1.22845558 44.79728545 1.27343178 48.5969696 C1.2863537 50.04167105 1.29073334 51.48647666 1.28615379 52.93122864 C1.26633896 61.08548747 1.42426379 67.61044656 7 74 C7.86214111 75.06831055 7.86214111 75.06831055 8.74169922 76.15820312 C9.25748535 76.69380859 9.77327148 77.22941406 10.3046875 77.78125 C10.88492676 78.39178223 11.46516602 79.00231445 12.06298828 79.63134766 C12.95993408 80.55633057 12.95993408 80.55633057 13.875 81.5 C15.12063265 82.80909613 16.36543386 84.11898393 17.609375 85.4296875 C18.19783203 86.04682617 18.78628906 86.66396484 19.39257812 87.29980469 C22.36554487 90.44435821 25.20928113 93.69369378 28 97 C28.804375 97.94875 29.60875 98.8975 30.4375 99.875 C32 102 32 102 32 104 C28.612801 102.5611898 26.6405896 100.77880501 24.25 98 C23.32960938 96.948125 23.32960938 96.948125 22.390625 95.875 C21 94 21 94 21 92 C19.515 91.505 19.515 91.505 18 91 C16.54092979 89.38840371 15.15457379 87.71025332 13.8125 86 C10.2473299 81.51441017 6.55494961 77.24222928 2.62890625 73.0703125 C-0.74882944 68.77726714 -1.24962715 64.84997395 -1.24291992 59.48144531 C-1.24599655 58.18370178 -1.24907318 56.88595825 -1.25224304 55.54888916 C-1.24534737 54.14196595 -1.23808056 52.73504452 -1.23046875 51.328125 C-1.22927599 49.88035117 -1.22882399 48.43257655 -1.2290802 46.98480225 C-1.22751958 43.95873128 -1.21925912 40.93277933 -1.20581055 37.90673828 C-1.18876041 34.02043102 -1.18499816 30.13425365 -1.18575573 26.24791336 C-1.18548449 23.26260123 -1.18001173 20.27731772 -1.17275429 17.29201508 C-1.16956498 15.85822516 -1.1675996 14.424432 -1.16686058 12.99063873 C-1.16470326 10.99407286 -1.1551752 8.997519 -1.14526367 7.00097656 C-1.14145187 5.86356018 -1.13764008 4.7261438 -1.13371277 3.55426025 C-1 1 -1 1 0 0 Z " fill="#6E6E6E" transform="translate(14,75)"/>
<path d="M0 0 C0.66 0 1.32 0 2 0 C2.06967257 8.3540203 2.12289843 16.70791812 2.15543652 25.06215763 C2.17105735 28.94185246 2.19222949 32.82134773 2.22631836 36.70092773 C2.25904056 40.44864792 2.27687994 44.19617678 2.28463173 47.94402885 C2.29015227 49.37010139 2.30093244 50.79616407 2.31719017 52.22215462 C2.43052489 62.57980147 2.11334931 69.20083403 -5.25 76.9375 C-6.04921875 77.7934375 -6.8484375 78.649375 -7.671875 79.53125 C-8.44015625 80.3459375 -9.2084375 81.160625 -10 82 C-14.84340255 87.38155839 -19.4386179 92.94751764 -23.984375 98.58203125 C-27.21066294 102.45232628 -27.21066294 102.45232628 -29 104 C-29.66 104 -30.32 104 -31 104 C-29.64891034 101.03674056 -28.11293352 98.79214835 -25.9375 96.375 C-25.31746094 95.68148437 -24.69742188 94.98796875 -24.05859375 94.2734375 C-23.37925781 93.52320313 -22.69992188 92.77296875 -22 92 C-21.26910156 91.18789062 -20.53820312 90.37578125 -19.78515625 89.5390625 C-18.65400391 88.28222656 -18.65400391 88.28222656 -17.5 87 C-16.36304688 85.73542969 -16.36304688 85.73542969 -15.203125 84.4453125 C-13.82350311 82.91403005 -12.43886254 81.38723789 -11.046875 79.8671875 C-10.15742188 78.88105469 -10.15742188 78.88105469 -9.25 77.875 C-8.73953125 77.31554687 -8.2290625 76.75609375 -7.703125 76.1796875 C-6.86007813 75.10074219 -6.86007813 75.10074219 -6 74 C-5.5923793 73.52881744 -5.18475861 73.05763489 -4.76478577 72.57217407 C0.23632209 65.94984217 -0.26786495 58.70098246 -0.29296875 50.78125 C-0.27983555 49.31292688 -0.26452637 47.84462177 -0.24714661 46.37634277 C-0.20747218 42.5359942 -0.19711766 38.69612011 -0.19311523 34.85559082 C-0.18375035 30.92701992 -0.1463161 26.99872397 -0.11132812 23.0703125 C-0.04693155 15.38020567 -0.0135448 7.69038251 0 0 Z " fill="#6F6F6F" transform="translate(229,75)"/>
<path d="M0 0 C1.13807314 2.27614628 1.08916262 3.66672733 1.17358398 6.19165039 C1.7556648 11.74099643 4.23535506 14.25857997 8.22265625 17.93359375 C8.84273056 18.53760513 9.46280487 19.14161652 10.10166931 19.76393127 C12.07047496 21.675081 14.06465814 23.55676719 16.0625 25.4375 C18.05829208 27.34830346 20.04836324 29.26474162 22.03404236 31.18605042 C23.26787267 32.37642928 24.50857789 33.55973039 25.75660706 34.73521423 C27.20805668 36.11902649 28.60947189 37.55498307 30 39 C30 39.66 30 40.32 30 41 C25.85850615 39.36556014 23.06880268 36.35741695 19.9921875 33.2578125 C19.42549347 32.69303192 18.85879944 32.12825134 18.27493286 31.5463562 C17.08073052 30.353512 15.88903877 29.15814973 14.69970703 27.96044922 C12.88140692 26.13144464 11.05269454 24.31334488 9.22265625 22.49609375 C8.0618582 21.33397404 6.90168075 20.17123406 5.7421875 19.0078125 C5.19634003 18.46601349 4.65049255 17.92421448 4.08810425 17.36599731 C0.1509074 13.37988925 -1.86324066 10.98301037 -2.25 5.375 C-2 2 -2 2 0 0 Z " fill="#818181" transform="translate(30,114)"/>
<path d="M0 0 C1.94767005 2.4602148 3.59297927 4.99129241 5.18359375 7.6875 C7.94403142 12.12353996 11.24873564 15.76038434 14.875 19.5 C16.12063265 20.80909613 17.36543386 22.11898393 18.609375 23.4296875 C19.19783203 24.04682617 19.78628906 24.66396484 20.39257812 25.29980469 C23.36554487 28.44435821 26.20928113 31.69369378 29 35 C29.804375 35.94875 30.60875 36.8975 31.4375 37.875 C33 40 33 40 33 42 C29.612801 40.5611898 27.6405896 38.77880501 25.25 36 C24.32960938 34.948125 24.32960938 34.948125 23.390625 33.875 C22 32 22 32 22 30 C21.01 29.67 20.02 29.34 19 29 C17.54092979 27.38840371 16.15457379 25.71025332 14.8125 24 C11.2473299 19.51441017 7.55494961 15.24222928 3.62890625 11.0703125 C0.73907641 7.39738729 0 4.66782318 0 0 Z " fill="#848484" transform="translate(13,137)"/>
<path d="M0 0 C0.66 0.99 1.32 1.98 2 3 C-2.46222655 9.08056928 -7.35289466 14.61723436 -12.50463867 20.10766602 C-16.3525529 24.23315856 -19.92868392 28.50982306 -23.37890625 32.9765625 C-24.83752362 34.79719816 -26.23978856 36.46895736 -28 38 C-28.66 38 -29.32 38 -30 38 C-28.64891034 35.03674056 -27.11293352 32.79214835 -24.9375 30.375 C-24.31746094 29.68148437 -23.69742188 28.98796875 -23.05859375 28.2734375 C-22.37925781 27.52320313 -21.69992188 26.77296875 -21 26 C-20.26910156 25.18789062 -19.53820312 24.37578125 -18.78515625 23.5390625 C-17.65400391 22.28222656 -17.65400391 22.28222656 -16.5 21 C-15.74203125 20.15695313 -14.9840625 19.31390625 -14.203125 18.4453125 C-12.82350311 16.91403005 -11.43886254 15.38723789 -10.046875 13.8671875 C-6.13270039 9.52755913 -2.92169042 5.0624682 0 0 Z " fill="#838383" transform="translate(228,141)"/>
<path d="M0 0 C0.33 1.32 0.66 2.64 1 4 C2.155 4.020625 3.31 4.04125 4.5 4.0625 C12.73141886 5.09506314 18.06674622 12.95676412 23 19 C18.74956637 18.52340676 17.06700111 16.15410591 14.3125 13.0625 C9.64099861 8.19664194 6.66198102 6.64470784 0 6 C0 4.02 0 2.04 0 0 Z " fill="#7E7E7E" transform="translate(35,105)"/>
<path d="M0 0 C0.33 0 0.66 0 1 0 C1.27085986 3.21646089 1.52659051 6.43275276 1.7578125 9.65234375 C1.8945433 11.54231628 2.0451426 13.43176709 2.2421875 15.31640625 C2.375 17.125 2.375 17.125 2 20 C-0.5 21.9375 -0.5 21.9375 -3 23 C-3 20 -3 20 -1 18 C-0.88048206 15.48429313 -0.85958503 13.0723066 -0.9375 10.5625 C-1.12137522 3.36412566 -1.12137522 3.36412566 0 0 Z " fill="#8E8E8E" transform="translate(34,92)"/>
<path d="M0 0 C0.33 0 0.66 0 1 0 C1.33 4.62 1.66 9.24 2 14 C2.66 14 3.32 14 4 14 C4 14.66 4 15.32 4 16 C3.34 16 2.68 16 2 16 C2 16.66 2 17.32 2 18 C1.01 18.33 0.02 18.66 -1 19 C-1.02690104 16.20826945 -1.04679053 13.41679652 -1.0625 10.625 C-1.07087891 9.8309375 -1.07925781 9.036875 -1.08789062 8.21875 C-1.11328125 2.2265625 -1.11328125 2.2265625 0 0 Z " fill="#7A7A7A" transform="translate(78,60)"/>
<path d="M0 0 C0.33 0 0.66 0 1 0 C2.59634055 7.98170274 0.95689217 13.49990012 -2 21 C-2.66 20.67 -3.32 20.34 -4 20 C-2.68 13.4 -1.36 6.8 0 0 Z " fill="#8E8E8E" transform="translate(196,32)"/>
<path d="M0 0 C0.83144531 0.05220703 1.66289062 0.10441406 2.51953125 0.15820312 C4.55508108 0.28688731 6.59010441 0.42385407 8.625 0.5625 C8.625 0.8925 8.625 1.2225 8.625 1.5625 C3.37418443 2.70952282 -1.44016538 2.49338566 -6.75 2.125 C-7.58144531 2.07279297 -8.41289062 2.02058594 -9.26953125 1.96679688 C-11.30508108 1.83811269 -13.34010441 1.70114593 -15.375 1.5625 C-15.375 1.2325 -15.375 0.9025 -15.375 0.5625 C-10.12418443 -0.58452282 -5.30983462 -0.36838566 0 0 Z " fill="#919191" transform="translate(151.375,20.4375)"/>
<path d="M0 0 C-4.62 2.97 -9.24 5.94 -14 9 C-14 8.01 -14 7.02 -14 6 C-10.08377636 2.31414246 -5.43589228 -1.81196409 0 0 Z " fill="#7D7D7D" transform="translate(110,24)"/>
<path d="M0 0 C0.33 0.99 0.66 1.98 1 3 C-0.5949008 4.19991599 -2.20126147 5.38461318 -3.8125 6.5625 C-4.70582031 7.22378906 -5.59914062 7.88507813 -6.51953125 8.56640625 C-7.33808594 9.03949219 -8.15664062 9.51257813 -9 10 C-9.99 9.67 -10.98 9.34 -12 9 C-11.21753906 8.43410156 -10.43507812 7.86820312 -9.62890625 7.28515625 C-8.61699219 6.55167969 -7.60507813 5.81820312 -6.5625 5.0625 C-5.55316406 4.33160156 -4.54382813 3.60070312 -3.50390625 2.84765625 C-1.17707392 1.22678115 -1.17707392 1.22678115 0 0 Z " fill="#808080" transform="translate(164,90)"/>
<path d="M0 0 C0.99 0.33 1.98 0.66 3 1 C2.21447823 2.96080624 1.42137877 4.91857816 0.625 6.875 C0.18414062 7.96554688 -0.25671875 9.05609375 -0.7109375 10.1796875 C-2 13 -2 13 -4 15 C-3.32584613 9.7415998 -1.75734451 4.97361654 0 0 Z " fill="#878787" transform="translate(81,47)"/>
<path d="M0 0 C0.68359375 1.640625 0.68359375 1.640625 1 4 C-0.21484375 6.796875 -0.21484375 6.796875 -1.9375 9.75 C-2.50339844 10.73484375 -3.06929687 11.7196875 -3.65234375 12.734375 C-4.09707031 13.48203125 -4.54179687 14.2296875 -5 15 C-6 12 -6 12 -4.78515625 9.08203125 C-4.21667969 8.00308594 -3.64820313 6.92414062 -3.0625 5.8125 C-2.49660156 4.72582031 -1.93070313 3.63914063 -1.34765625 2.51953125 C-0.90292969 1.68808594 -0.45820313 0.85664062 0 0 Z " fill="#7C7C7C" transform="translate(192,52)"/>
<path d="M0 0 C2.3828125 0.0234375 2.3828125 0.0234375 5.125 0.375 C6.03507812 0.48585937 6.94515625 0.59671875 7.8828125 0.7109375 C8.93082031 0.85402344 8.93082031 0.85402344 10 1 C6.64672361 3.23551759 6.09256343 3.17283528 2.3125 2.625 C1.50425781 2.51414063 0.69601563 2.40328125 -0.13671875 2.2890625 C-0.75160156 2.19367188 -1.36648437 2.09828125 -2 2 C-1.34 1.34 -0.68 0.68 0 0 Z " fill="#909090" transform="translate(72,134)"/>
<path d="M0 0 C3.39417765 3.12621626 5.6062718 5.56541027 7 10 C2.93376028 8.64458676 1.46953182 6.42990531 -1 3 C-0.67 2.01 -0.34 1.02 0 0 Z " fill="#8B8B8B" transform="translate(209,108)"/>
<path d="M0 0 C0 0.66 0 1.32 0 2 C-3.3125 3.125 -3.3125 3.125 -7 4 C-7.99 3.34 -8.98 2.68 -10 2 C-6.38026598 0.68373308 -3.90432869 0 0 0 Z " fill="#8D8D8D" transform="translate(165,135)"/>
<path d="M0 0 C0.33 0 0.66 0 1 0 C0.53199289 4.05606165 0.12046792 7.46588679 -2 11 C-3.14947895 7.44706507 -3.0868937 6.20023331 -1.5625 2.6875 C-1.046875 1.800625 -0.53125 0.91375 0 0 Z " fill="#8D8D8D" transform="translate(138,152)"/>
<path d="M0 0 C0.99 0 1.98 0 3 0 C3.125 3.375 3.125 3.375 3 7 C2.34 7.66 1.68 8.32 1 9 C0.67 6.03 0.34 3.06 0 0 Z " fill="#929292" transform="translate(30,76)"/>
<path d="M0 0 C3.45925163 1.2491742 6.14693203 2.67527795 9 5 C5.26512223 4.5020163 3.18762365 4.12508244 0 2 C0 1.34 0 0.68 0 0 Z " fill="#7C7C7C" transform="translate(63,130)"/>
</svg>
