<?xml version="1.0" encoding="UTF-8"?>
<svg version="1.1" xmlns="http://www.w3.org/2000/svg" width="232" height="250">
<path d="M0 0 C76.56 0 153.12 0 232 0 C232 82.5 232 165 232 250 C155.44 250 78.88 250 0 250 C0 167.5 0 85 0 0 Z " fill="#FEFEFE" transform="translate(0,0)"/>
<path d="M0 0 C0.66 0 1.32 0 2 0 C3.6309349 2.21904154 5.14007096 4.43565114 6.625 6.75 C7.533782 8.14067216 8.44263698 9.53129664 9.3515625 10.921875 C9.80176758 11.61603516 10.25197266 12.31019531 10.71582031 13.02539062 C12.45450956 15.69887325 14.22599455 18.34985309 16 21 C18.12983103 24.19046978 20.25467979 27.38398181 22.3671875 30.5859375 C23.20264114 31.84927844 24.03858532 33.11229512 24.875 34.375 C25.2879834 34.99850342 25.7009668 35.62200684 26.12646484 36.2644043 C29.60200602 41.47637363 33.22937345 46.57104723 36.95263672 51.60888672 C40 55.78626782 40 55.78626782 40 58 C32.08 58 24.16 58 16 58 C16.33 84.73 16.66 111.46 17 139 C20.465 134.545 20.465 134.545 24 130 C25.33696344 128.54738229 26.7024844 127.11894807 28.125 125.75 C28.79660156 125.09644531 29.46820313 124.44289063 30.16015625 123.76953125 C30.76730469 123.18558594 31.37445313 122.60164063 32 122 C32.845625 121.154375 33.69125 120.30875 34.5625 119.4375 C35.7690625 118.2309375 35.7690625 118.2309375 37 117 C37.49757812 116.47921875 37.99515625 115.9584375 38.5078125 115.421875 C42.72025736 111.07228077 47.23452621 107.35860829 52.05859375 103.69921875 C52.69925781 103.13847656 53.33992187 102.57773438 54 102 C54 99.05385334 52.47065768 97.67298207 50.75 95.3125 C47.81753051 91.28348744 45.5108805 87.39404088 43 83 C64.78 83 86.56 83 109 83 C107.72546961 89.37265193 106.46541727 95.18520602 104.390625 101.25390625 C104.1413324 101.99849594 103.89203979 102.74308563 103.63519287 103.51023865 C102.8457794 105.86293857 102.04793353 108.21267809 101.25 110.5625 C100.73124359 112.10724492 100.21301146 113.652166 99.6953125 115.19726562 C96.2330161 125.50138914 92.64461306 135.75909328 89 146 C86.21355425 143.27887752 83.56207645 140.64189574 81.32421875 137.44921875 C80.88916016 136.83369141 80.45410156 136.21816406 80.00585938 135.58398438 C79.57080078 134.95814453 79.13574219 134.33230469 78.6875 133.6875 C78.23310547 133.04232422 77.77871094 132.39714844 77.31054688 131.73242188 C76.20264048 130.15802858 75.10069475 128.57944354 74 127 C72.55962331 127.93307421 71.12281015 128.87165077 69.6875 129.8125 C68.88699219 130.33457031 68.08648437 130.85664063 67.26171875 131.39453125 C65.00022173 132.89981595 65.00022173 132.89981595 63.33203125 134.69921875 C62 136 62 136 60 136 C60 136.66 60 137.32 60 138 C58.63671875 139.26953125 58.63671875 139.26953125 56.6875 140.8125 C29.13604979 164.42802875 19.00753968 198.14792254 16 233 C15.34 233 14.68 233 14 233 C12.57511367 199.22491663 27.08172699 168.51702899 49.4375 143.875 C53.70125406 139.24745179 58.11864903 134.97016546 63 131 C63.87269531 130.27425781 64.74539062 129.54851562 65.64453125 128.80078125 C72.72087696 123 72.72087696 123 75 123 C76.18920898 124.43701172 76.18920898 124.43701172 77.49609375 126.4296875 C77.97240234 127.14253906 78.44871094 127.85539062 78.93945312 128.58984375 C79.43380859 129.34394531 79.92816406 130.09804687 80.4375 130.875 C81.41012186 132.35502117 82.38779887 133.83173565 83.37109375 135.3046875 C83.80349365 135.96452637 84.23589355 136.62436523 84.68139648 137.30419922 C86.07097912 139.27579491 86.07097912 139.27579491 89 141 C89.09079834 140.08017334 89.18159668 139.16034668 89.27514648 138.21264648 C90.05164603 132.81969296 91.88162561 127.75143511 93.59765625 122.59765625 C93.91118042 121.64145386 94.22470459 120.68525146 94.54772949 119.70007324 C95.71293902 116.15211363 96.88831423 112.60749908 98.0625 109.0625 C100.681875 101.121875 103.30125 93.18125 106 85 C86.53 85 67.06 85 47 85 C52.445 92.425 52.445 92.425 58 100 C56.78668807 104.85324771 54.60751386 106.18153003 50.75 108.9375 C47.33587509 111.41945372 44.18771467 113.81097447 41.203125 116.81640625 C39 119 39 119 37 119 C37 119.66 37 120.32 37 121 C35.56640625 122.33984375 35.56640625 122.33984375 33.5625 123.9375 C5.29146888 148.13432277 -8.14126514 187.7689286 -11.45703125 223.6171875 C-11.69313191 226.74630824 -11.8895874 229.86428219 -12 233 C-12.66 233 -13.32 233 -14 233 C-14.12955078 231.19982422 -14.12955078 231.19982422 -14.26171875 229.36328125 C-16.6452214 199.77062488 -25.45865569 173.76733474 -45 151 C-46.06541016 149.75089844 -46.06541016 149.75089844 -47.15234375 148.4765625 C-54.5819359 139.98933069 -62.326989 132.80800119 -72 127 C-72.38333496 127.54003662 -72.76666992 128.08007324 -73.16162109 128.63647461 C-74.89504246 131.07329432 -76.63492239 133.5054295 -78.375 135.9375 C-78.97828125 136.78763672 -79.5815625 137.63777344 -80.203125 138.51367188 C-80.78320312 139.32255859 -81.36328125 140.13144531 -81.9609375 140.96484375 C-82.76217041 142.08814087 -82.76217041 142.08814087 -83.57958984 143.23413086 C-85 145 -85 145 -87 146 C-87.49028687 144.52128418 -87.49028687 144.52128418 -87.99047852 143.01269531 C-89.23552681 139.25922143 -90.48237551 135.50634803 -91.73007202 131.75375366 C-92.28372502 130.0884916 -92.83713196 128.42314771 -93.39028931 126.75772095 C-96.82186255 116.43111845 -100.2622775 106.11107059 -104.03149414 95.90136719 C-105.63940017 91.44933881 -106.3115951 87.81883429 -107 83 C-85.22 83 -63.44 83 -41 83 C-43.64817951 87.63431415 -46.11454385 91.7046342 -49.25 95.9375 C-49.95640625 96.89527344 -50.6628125 97.85304688 -51.390625 98.83984375 C-51.92171875 99.55269531 -52.4528125 100.26554687 -53 101 C-50.10614759 104.0867759 -47.12288842 106.69443266 -43.75 109.25 C-38.57839217 113.33120859 -33.91821754 117.85587648 -29.25 122.5 C-28.5290918 123.21188477 -27.80818359 123.92376953 -27.06542969 124.65722656 C-26.36836914 125.3581543 -25.67130859 126.05908203 -24.953125 126.78125 C-24.33598633 127.40064453 -23.71884766 128.02003906 -23.08300781 128.65820312 C-20.17512927 131.92735115 -17.62516878 135.49977496 -15 139 C-14.67 112.27 -14.34 85.54 -14 58 C-21.92 58 -29.84 58 -38 58 C-36.51254399 55.02508798 -35.03861233 52.42087343 -33.22192383 49.66552734 C-32.66406693 48.8171933 -32.10621002 47.96885925 -31.53144836 47.09481812 C-30.62836189 45.72917221 -30.62836189 45.72917221 -29.70703125 44.3359375 C-29.08277756 43.38868805 -28.45852386 42.4414386 -27.81535339 41.46548462 C-26.49246615 39.45919929 -25.16848873 37.45363243 -23.84350586 35.44873047 C-21.83498375 32.40902697 -19.83030005 29.36682053 -17.82617188 26.32421875 C-16.53668804 24.36964011 -15.24698141 22.41520842 -13.95703125 20.4609375 C-13.36509476 19.56265228 -12.77315826 18.66436707 -12.1632843 17.73886108 C-10.4524179 15.15221887 -8.72968188 12.57409374 -7 10 C-6.04980484 8.57702606 -6.04980484 8.57702606 -5.08041382 7.12530518 C-4.14475082 5.74964386 -4.14475082 5.74964386 -3.19018555 4.34619141 C-2.62647751 3.51246002 -2.06276947 2.67872864 -1.48197937 1.81973267 C-0.99292618 1.21922089 -0.50387299 0.61870911 0 0 Z " fill="#FDFDFD" transform="translate(118,5)"/>
<path d="M0 0 C0.66 0 1.32 0 2 0 C3.6309349 2.21904154 5.14007096 4.43565114 6.625 6.75 C7.533782 8.14067216 8.44263698 9.53129664 9.3515625 10.921875 C9.80176758 11.61603516 10.25197266 12.31019531 10.71582031 13.02539062 C12.45450956 15.69887325 14.22599455 18.34985309 16 21 C18.12983103 24.19046978 20.25467979 27.38398181 22.3671875 30.5859375 C23.20264114 31.84927844 24.03858532 33.11229512 24.875 34.375 C25.2879834 34.99850342 25.7009668 35.62200684 26.12646484 36.2644043 C29.60200602 41.47637363 33.22937345 46.57104723 36.95263672 51.60888672 C40 55.78626782 40 55.78626782 40 58 C32.08 58 24.16 58 16 58 C16.33 84.73 16.66 111.46 17 139 C20.465 134.545 20.465 134.545 24 130 C25.33696344 128.54738229 26.7024844 127.11894807 28.125 125.75 C28.79660156 125.09644531 29.46820313 124.44289063 30.16015625 123.76953125 C30.76730469 123.18558594 31.37445313 122.60164063 32 122 C32.845625 121.154375 33.69125 120.30875 34.5625 119.4375 C35.7690625 118.2309375 35.7690625 118.2309375 37 117 C37.49757812 116.47921875 37.99515625 115.9584375 38.5078125 115.421875 C42.72025736 111.07228077 47.23452621 107.35860829 52.05859375 103.69921875 C52.69925781 103.13847656 53.33992187 102.57773438 54 102 C54 99.05385334 52.47065768 97.67298207 50.75 95.3125 C47.81753051 91.28348744 45.5108805 87.39404088 43 83 C64.78 83 86.56 83 109 83 C107.72546961 89.37265193 106.46541727 95.18520602 104.390625 101.25390625 C104.1413324 101.99849594 103.89203979 102.74308563 103.63519287 103.51023865 C102.8457794 105.86293857 102.04793353 108.21267809 101.25 110.5625 C100.73124359 112.10724492 100.21301146 113.652166 99.6953125 115.19726562 C96.2330161 125.50138914 92.64461306 135.75909328 89 146 C86.21355425 143.27887752 83.56207645 140.64189574 81.32421875 137.44921875 C80.88916016 136.83369141 80.45410156 136.21816406 80.00585938 135.58398438 C79.57080078 134.95814453 79.13574219 134.33230469 78.6875 133.6875 C78.23310547 133.04232422 77.77871094 132.39714844 77.31054688 131.73242188 C76.20264048 130.15802858 75.10069475 128.57944354 74 127 C72.55962331 127.93307421 71.12281015 128.87165077 69.6875 129.8125 C68.88699219 130.33457031 68.08648437 130.85664063 67.26171875 131.39453125 C65.00022173 132.89981595 65.00022173 132.89981595 63.33203125 134.69921875 C62 136 62 136 60 136 C60 136.66 60 137.32 60 138 C58.63671875 139.26953125 58.63671875 139.26953125 56.6875 140.8125 C29.13604979 164.42802875 19.00753968 198.14792254 16 233 C15.34 233 14.68 233 14 233 C12.57511367 199.22491663 27.08172699 168.51702899 49.4375 143.875 C53.70125406 139.24745179 58.11864903 134.97016546 63 131 C63.87269531 130.27425781 64.74539062 129.54851562 65.64453125 128.80078125 C72.72087696 123 72.72087696 123 75 123 C76.18920898 124.43701172 76.18920898 124.43701172 77.49609375 126.4296875 C77.97240234 127.14253906 78.44871094 127.85539062 78.93945312 128.58984375 C79.43380859 129.34394531 79.92816406 130.09804687 80.4375 130.875 C81.41012186 132.35502117 82.38779887 133.83173565 83.37109375 135.3046875 C83.80349365 135.96452637 84.23589355 136.62436523 84.68139648 137.30419922 C86.07097912 139.27579491 86.07097912 139.27579491 89 141 C89.09079834 140.08017334 89.18159668 139.16034668 89.27514648 138.21264648 C90.05164603 132.81969296 91.88162561 127.75143511 93.59765625 122.59765625 C93.91118042 121.64145386 94.22470459 120.68525146 94.54772949 119.70007324 C95.71293902 116.15211363 96.88831423 112.60749908 98.0625 109.0625 C100.681875 101.121875 103.30125 93.18125 106 85 C86.53 85 67.06 85 47 85 C52.445 92.425 52.445 92.425 58 100 C56.78668807 104.85324771 54.60751386 106.18153003 50.75 108.9375 C47.33587509 111.41945372 44.18771467 113.81097447 41.203125 116.81640625 C39 119 39 119 37 119 C37 119.66 37 120.32 37 121 C35.56640625 122.33984375 35.56640625 122.33984375 33.5625 123.9375 C5.29146888 148.13432277 -8.14126514 187.7689286 -11.45703125 223.6171875 C-11.69313191 226.74630824 -11.8895874 229.86428219 -12 233 C-12.66 233 -13.32 233 -14 233 C-14.12955078 231.19982422 -14.12955078 231.19982422 -14.26171875 229.36328125 C-16.6452214 199.77062488 -25.45865569 173.76733474 -45 151 C-46.06541016 149.75089844 -46.06541016 149.75089844 -47.15234375 148.4765625 C-54.5819359 139.98933069 -62.326989 132.80800119 -72 127 C-72.38333496 127.54003662 -72.76666992 128.08007324 -73.16162109 128.63647461 C-74.89504246 131.07329432 -76.63492239 133.5054295 -78.375 135.9375 C-78.97828125 136.78763672 -79.5815625 137.63777344 -80.203125 138.51367188 C-80.78320312 139.32255859 -81.36328125 140.13144531 -81.9609375 140.96484375 C-82.76217041 142.08814087 -82.76217041 142.08814087 -83.57958984 143.23413086 C-85 145 -85 145 -87 146 C-87.49028687 144.52128418 -87.49028687 144.52128418 -87.99047852 143.01269531 C-89.23552681 139.25922143 -90.48237551 135.50634803 -91.73007202 131.75375366 C-92.28372502 130.0884916 -92.83713196 128.42314771 -93.39028931 126.75772095 C-96.82186255 116.43111845 -100.2622775 106.11107059 -104.03149414 95.90136719 C-105.63940017 91.44933881 -106.3115951 87.81883429 -107 83 C-85.22 83 -63.44 83 -41 83 C-43.64817951 87.63431415 -46.11454385 91.7046342 -49.25 95.9375 C-49.95640625 96.89527344 -50.6628125 97.85304688 -51.390625 98.83984375 C-51.92171875 99.55269531 -52.4528125 100.26554687 -53 101 C-50.10614759 104.0867759 -47.12288842 106.69443266 -43.75 109.25 C-38.57839217 113.33120859 -33.91821754 117.85587648 -29.25 122.5 C-28.5290918 123.21188477 -27.80818359 123.92376953 -27.06542969 124.65722656 C-26.36836914 125.3581543 -25.67130859 126.05908203 -24.953125 126.78125 C-24.33598633 127.40064453 -23.71884766 128.02003906 -23.08300781 128.65820312 C-20.17512927 131.92735115 -17.62516878 135.49977496 -15 139 C-14.67 112.27 -14.34 85.54 -14 58 C-21.92 58 -29.84 58 -38 58 C-36.51254399 55.02508798 -35.03861233 52.42087343 -33.22192383 49.66552734 C-32.66406693 48.8171933 -32.10621002 47.96885925 -31.53144836 47.09481812 C-30.62836189 45.72917221 -30.62836189 45.72917221 -29.70703125 44.3359375 C-29.08277756 43.38868805 -28.45852386 42.4414386 -27.81535339 41.46548462 C-26.49246615 39.45919929 -25.16848873 37.45363243 -23.84350586 35.44873047 C-21.83498375 32.40902697 -19.83030005 29.36682053 -17.82617188 26.32421875 C-16.53668804 24.36964011 -15.24698141 22.41520842 -13.95703125 20.4609375 C-13.36509476 19.56265228 -12.77315826 18.66436707 -12.1632843 17.73886108 C-10.4524179 15.15221887 -8.72968188 12.57409374 -7 10 C-6.04980484 8.57702606 -6.04980484 8.57702606 -5.08041382 7.12530518 C-4.14475082 5.74964386 -4.14475082 5.74964386 -3.19018555 4.34619141 C-2.62647751 3.51246002 -2.06276947 2.67872864 -1.48197937 1.81973267 C-0.99292618 1.21922089 -0.50387299 0.61870911 0 0 Z M0 4 C-1.75608833 6.32010976 -3.39019176 8.6432261 -5 11.0625 C-5.48911865 11.78622803 -5.9782373 12.50995605 -6.48217773 13.25561523 C-7.99539056 15.49895752 -9.4986436 17.74870988 -11 20 C-11.86572832 21.29177197 -12.73160532 22.5834443 -13.59765625 23.875 C-15.23952606 26.32780119 -16.87401938 28.78531606 -18.50390625 31.24609375 C-20.24601718 33.87416479 -22.0060756 36.48915102 -23.77734375 39.09765625 C-24.23294678 39.77175537 -24.6885498 40.44585449 -25.15795898 41.14038086 C-26.02748671 42.42624422 -26.90048473 43.70977046 -27.77758789 44.99047852 C-30.02180702 48.32023918 -31.48602408 51.2150602 -33 55 C-26.07 55 -19.14 55 -12 55 C-12 88.99 -12 122.98 -12 158 C-12.66 158 -13.32 158 -14 158 C-13.82597656 156.71029297 -13.82597656 156.71029297 -13.6484375 155.39453125 C-12.98087163 146.64941834 -14.39253095 142.0478107 -19.87597656 135.55932617 C-20.79834421 134.51207471 -21.73117219 133.47393278 -22.67480469 132.44580078 C-23.87240139 131.1392113 -25.02150521 129.78857595 -26.1640625 128.43359375 C-30.39052992 123.45781238 -34.98624958 119.16526958 -40 115 C-41.02251491 114.13847103 -42.04462164 113.27645748 -43.06640625 112.4140625 C-48.86138465 107.48269489 -48.86138465 107.48269489 -55 103 C-54.44655096 98.83403814 -51.96827771 96.06075693 -49.4375 92.875 C-46.23997139 89.33551574 -46.23997139 89.33551574 -45 85 C-64.47 85 -83.94 85 -104 85 C-102.45894405 92.0917095 -102.45894405 92.0917095 -100.53540039 99.01318359 C-100.264944 99.88373383 -99.99448761 100.75428406 -99.71583557 101.6512146 C-99.4293364 102.55779816 -99.14283722 103.46438171 -98.84765625 104.3984375 C-98.54685654 105.35521393 -98.24605682 106.31199036 -97.93614197 107.29776001 C-97.30368203 109.30349859 -96.6690949 111.30856755 -96.0324707 113.31298828 C-95.05960989 116.38412351 -94.10094367 119.45947149 -93.14257812 122.53515625 C-92.52430218 124.48985704 -91.905191 126.44429389 -91.28515625 128.3984375 C-91.0006813 129.31716644 -90.71620636 130.23589539 -90.42311096 131.1824646 C-90.14950241 132.03410187 -89.87589386 132.88573914 -89.59399414 133.76318359 C-89.35797989 134.51103119 -89.12196564 135.25887878 -88.87879944 136.02938843 C-87.90958884 138.20273714 -86.77286665 139.43624565 -85 141 C-77.15133278 132.83575767 -77.15133278 132.83575767 -73 123 C-60.2548888 132.47660688 -48.59951908 142.20645911 -39 155 C-38.24976562 155.99644531 -37.49953125 156.99289063 -36.7265625 158.01953125 C-25.04407357 174.18761746 -16.54300376 193.09441886 -14 213 C-13.34 213 -12.68 213 -12 213 C-11.92523438 212.23300781 -11.85046875 211.46601563 -11.7734375 210.67578125 C-9.49066288 191.40647788 -3.63653298 168.13344371 8.7883606 152.79182434 C15.88456186 143.7976765 14.89588063 134.34057576 14.68359375 123.45703125 C14.67051665 121.47736878 14.66056247 119.49768346 14.65357971 117.51799011 C14.62702023 112.34056603 14.55840404 107.16454544 14.48065186 101.9876709 C14.40867942 96.69184346 14.37699592 91.3957863 14.34179688 86.09960938 C14.26701917 75.7323612 14.14402777 65.36651759 14 55 C20.93 55 27.86 55 35 55 C33.27806085 50.69515211 31.33509697 47.27063876 28.75 43.5 C27.85253141 42.17340242 26.95541713 40.8465651 26.05859375 39.51953125 C25.32745361 38.44179443 25.32745361 38.44179443 24.58154297 37.34228516 C22.86659838 34.80243051 21.16803754 32.2521716 19.47265625 29.69921875 C18.86647461 28.7865625 18.26029297 27.87390625 17.63574219 26.93359375 C16.45240705 25.15130215 15.26944235 23.36876453 14.08691406 21.5859375 C12.40005534 19.05126922 10.70234035 16.52429305 9 14 C8.36884277 13.05592285 7.73768555 12.1118457 7.08740234 11.13916016 C6.46430176 10.22312012 5.84120117 9.30708008 5.19921875 8.36328125 C4.63420654 7.52708252 4.06919434 6.69088379 3.48706055 5.8293457 C2.99633057 5.22566162 2.50560059 4.62197754 2 4 C1.34 4 0.68 4 0 4 Z " fill="#7D7D7D" transform="translate(118,5)"/>
<path d="M0 0 C7.26 0 14.52 0 22 0 C22 33.66 22 67.32 22 102 C21.34 102 20.68 102 20 102 C20.04382813 101.14019531 20.08765625 100.28039062 20.1328125 99.39453125 C20.10836288 88.18437908 16.27254076 83.05174155 9 75 C8.360625 74.2265625 7.72125 73.453125 7.0625 72.65625 C3.12612234 67.91801763 -1.27580331 63.93550281 -6 60 C-7.00160156 59.15695313 -8.00320312 58.31390625 -9.03515625 57.4453125 C-15.40424936 52.08036629 -15.40424936 52.08036629 -22 47 C-21 43 -21 43 -11 29 C-30.47 29 -49.94 29 -70 29 C-67.40125 36.96125 -64.8025 44.9225 -62.125 53.125 C-61.30789551 55.62852051 -60.49079102 58.13204102 -59.64892578 60.71142578 C-58.99773608 62.70605949 -58.34653257 64.7006887 -57.6953125 66.6953125 C-57.36007568 67.72261475 -57.02483887 68.74991699 -56.67944336 69.80834961 C-55.13328187 74.54354112 -53.58365929 79.27717608 -52 84 C-48.29394681 80.50164156 -45.47800508 76.99149936 -42.6875 72.6875 C-41.99011719 71.61886719 -41.29273437 70.55023438 -40.57421875 69.44921875 C-40.05472656 68.64097656 -39.53523438 67.83273438 -39 67 C-25.36622424 73.22815665 -12.86693922 87.18278827 -4 99 C-3.24976562 99.99644531 -2.49953125 100.99289063 -1.7265625 102.01953125 C9.33966874 117.33474206 20.37098341 137.70886274 20 157 C20.66 157 21.32 157 22 157 C21.896875 155.741875 21.79375 154.48375 21.6875 153.1875 C21.71912948 130.85708582 34.55422522 105.92306276 47 88 C48.485 88.495 48.485 88.495 50 89 C49.35933594 89.98097656 48.71867187 90.96195312 48.05859375 91.97265625 C31.30548252 117.95687473 23.09069144 146.02436312 22 177 C21.34 177 20.68 177 20 177 C19.87044922 175.19982422 19.87044922 175.19982422 19.73828125 173.36328125 C17.3547786 143.77062488 8.54134431 117.76733474 -11 95 C-12.06541016 93.75089844 -12.06541016 93.75089844 -13.15234375 92.4765625 C-20.5819359 83.98933069 -28.326989 76.80800119 -38 71 C-38.38333496 71.54003662 -38.76666992 72.08007324 -39.16162109 72.63647461 C-40.89504246 75.07329432 -42.63492239 77.5054295 -44.375 79.9375 C-44.97828125 80.78763672 -45.5815625 81.63777344 -46.203125 82.51367188 C-46.78320312 83.32255859 -47.36328125 84.13144531 -47.9609375 84.96484375 C-48.49509277 85.7137085 -49.02924805 86.46257324 -49.57958984 87.23413086 C-51 89 -51 89 -53 90 C-53.49028687 88.52128418 -53.49028687 88.52128418 -53.99047852 87.01269531 C-55.23552681 83.25922143 -56.48237551 79.50634803 -57.73007202 75.75375366 C-58.28372502 74.0884916 -58.83713196 72.42314771 -59.39028931 70.75772095 C-62.82186255 60.43111845 -66.2622775 50.11107059 -70.03149414 39.90136719 C-71.63940017 35.44933881 -72.3115951 31.81883429 -73 27 C-51.22 27 -29.44 27 -7 27 C-9.64817951 31.63431415 -12.11454385 35.7046342 -15.25 39.9375 C-15.95640625 40.89527344 -16.6628125 41.85304687 -17.390625 42.83984375 C-17.92171875 43.55269531 -18.4528125 44.26554687 -19 45 C-16.10614759 48.0867759 -13.12288842 50.69443266 -9.75 53.25 C-4.57839217 57.33120859 0.08178246 61.85587648 4.75 66.5 C5.4709082 67.21188477 6.19181641 67.92376953 6.93457031 68.65722656 C7.63163086 69.3581543 8.32869141 70.05908203 9.046875 70.78125 C9.66401367 71.40064453 10.28115234 72.02003906 10.91699219 72.65820312 C13.82487073 75.92735115 16.37483122 79.49977496 19 83 C19.33 55.94 19.66 28.88 20 1 C13.4 1 6.8 1 0 1 C0 0.67 0 0.34 0 0 Z " fill="#808080" transform="translate(84,61)"/>
<path d="M0 0 C7.26 0 14.52 0 22 0 C22 33.66 22 67.32 22 102 C21.34 102 20.68 102 20 102 C20.04382813 101.14019531 20.08765625 100.28039062 20.1328125 99.39453125 C20.10836288 88.18437908 16.27254076 83.05174155 9 75 C8.360625 74.2265625 7.72125 73.453125 7.0625 72.65625 C3.12612234 67.91801763 -1.27580331 63.93550281 -6 60 C-7.00160156 59.15695313 -8.00320312 58.31390625 -9.03515625 57.4453125 C-15.40424936 52.08036629 -15.40424936 52.08036629 -22 47 C-21 43 -21 43 -11 29 C-30.8 29 -50.6 29 -71 29 C-71.33 29.66 -71.66 30.32 -72 31 C-72.33 29.68 -72.66 28.36 -73 27 C-51.22 27 -29.44 27 -7 27 C-9.64817951 31.63431415 -12.11454385 35.7046342 -15.25 39.9375 C-15.95640625 40.89527344 -16.6628125 41.85304687 -17.390625 42.83984375 C-17.92171875 43.55269531 -18.4528125 44.26554687 -19 45 C-16.10614759 48.0867759 -13.12288842 50.69443266 -9.75 53.25 C-4.57839217 57.33120859 0.08178246 61.85587648 4.75 66.5 C5.4709082 67.21188477 6.19181641 67.92376953 6.93457031 68.65722656 C7.63163086 69.3581543 8.32869141 70.05908203 9.046875 70.78125 C9.66401367 71.40064453 10.28115234 72.02003906 10.91699219 72.65820312 C13.82487073 75.92735115 16.37483122 79.49977496 19 83 C19.33 55.94 19.66 28.88 20 1 C13.4 1 6.8 1 0 1 C0 0.67 0 0.34 0 0 Z " fill="#7B7B7B" transform="translate(84,61)"/>
<path d="M0 0 C0.66 0 1.32 0 2 0 C3.6309349 2.21904154 5.14007096 4.43565114 6.625 6.75 C7.533782 8.14067216 8.44263698 9.53129664 9.3515625 10.921875 C9.80176758 11.61603516 10.25197266 12.31019531 10.71582031 13.02539062 C12.45450956 15.69887325 14.22599455 18.34985309 16 21 C18.12983103 24.19046978 20.25467979 27.38398181 22.3671875 30.5859375 C23.20264114 31.84927844 24.03858532 33.11229512 24.875 34.375 C25.2879834 34.99850342 25.7009668 35.62200684 26.12646484 36.2644043 C29.60200602 41.47637363 33.22937345 46.57104723 36.95263672 51.60888672 C40 55.78626782 40 55.78626782 40 58 C36.04180389 58.08678303 32.08385066 58.14031733 28.125 58.1875 C26.99707031 58.21263672 25.86914062 58.23777344 24.70703125 58.26367188 C23.09248047 58.27817383 23.09248047 58.27817383 21.4453125 58.29296875 C19.95281982 58.31653442 19.95281982 58.31653442 18.43017578 58.34057617 C17.22723877 58.17199097 17.22723877 58.17199097 16 58 C15.34 57.01 14.68 56.02 14 55 C20.93 55 27.86 55 35 55 C30.49806284 47.87193282 25.90956708 40.81543872 21.21435547 33.81347656 C18.76163619 30.15067021 16.31942771 26.4808425 13.875 22.8125 C12.41297964 20.61934944 10.9509583 18.4262651 9.48339844 16.23681641 C8.43073102 14.64949927 7.3938786 13.05164309 6.36816406 11.44677734 C5.57104004 10.21048584 5.57104004 10.21048584 4.7578125 8.94921875 C4.27715332 8.19342529 3.79649414 7.43763184 3.30126953 6.65893555 C2.65714111 5.83776245 2.65714111 5.83776245 2 5 C1.34 5 0.68 5 0 5 C-1.59045282 7.156287 -3.05598252 9.31036265 -4.5 11.5625 C-5.4060675 12.949338 -6.31232261 14.33605344 -7.21875 15.72265625 C-7.68152344 16.43566895 -8.14429687 17.14868164 -8.62109375 17.88330078 C-10.72090078 21.10662354 -12.86094 24.30265482 -15 27.5 C-15.82440621 28.73685424 -16.64862379 29.97383423 -17.47265625 31.2109375 C-19.22731376 33.84326741 -20.98568919 36.47307281 -22.74609375 39.1015625 C-23.19662109 39.77509766 -23.64714844 40.44863281 -24.11132812 41.14257812 C-24.9697418 42.42577382 -25.82905799 43.70836642 -26.68945312 44.99023438 C-28.89052303 48.28274391 -30.95994502 51.59990836 -33 55 C-26.07 55 -19.14 55 -12 55 C-12.66 55.99 -13.32 56.98 -14 58 C-16.43017578 58.34057617 -16.43017578 58.34057617 -19.4453125 58.29296875 C-20.52167969 58.28330078 -21.59804687 58.27363281 -22.70703125 58.26367188 C-23.83496094 58.23853516 -24.96289062 58.21339844 -26.125 58.1875 C-27.26066406 58.17396484 -28.39632812 58.16042969 -29.56640625 58.14648438 C-32.37807387 58.11104319 -35.18880417 58.06163517 -38 58 C-36.59891657 55.0683758 -35.0098979 52.37732266 -33.22192383 49.66552734 C-32.66406693 48.8171933 -32.10621002 47.96885925 -31.53144836 47.09481812 C-30.92939072 46.18438751 -30.32733307 45.27395691 -29.70703125 44.3359375 C-28.77065071 42.91506332 -28.77065071 42.91506332 -27.81535339 41.46548462 C-26.49246615 39.45919929 -25.16848873 37.45363243 -23.84350586 35.44873047 C-21.83498375 32.40902697 -19.83030005 29.36682053 -17.82617188 26.32421875 C-16.53668804 24.36964011 -15.24698141 22.41520842 -13.95703125 20.4609375 C-13.36509476 19.56265228 -12.77315826 18.66436707 -12.1632843 17.73886108 C-10.4524179 15.15221887 -8.72968188 12.57409374 -7 10 C-6.36653656 9.05135071 -5.73307312 8.10270142 -5.08041382 7.12530518 C-4.45663849 6.20819763 -3.83286316 5.29109009 -3.19018555 4.34619141 C-2.62647751 3.51246002 -2.06276947 2.67872864 -1.48197937 1.81973267 C-0.99292618 1.21922089 -0.50387299 0.61870911 0 0 Z " fill="#848484" transform="translate(118,5)"/>
<path d="M0 0 C21.78 0 43.56 0 66 0 C65 5 65 5 63 7 C63 5.35 63 3.7 63 2 C43.53 2 24.06 2 4 2 C5.32 3.98 6.64 5.96 8 8 C7.67 8.66 7.34 9.32 7 10 C6.01524786 8.90081184 5.03739527 7.7954398 4.0625 6.6875 C3.51722656 6.07261719 2.97195312 5.45773438 2.41015625 4.82421875 C1 3 1 3 0 0 Z " fill="#6F6F6F" transform="translate(161,88)"/>
<path d="M0 0 C21.78 0 43.56 0 66 0 C64 2 64 2 61.4057312 2.24050903 C59.76025803 2.2338472 59.76025803 2.2338472 58.08154297 2.22705078 C56.84040741 2.22689972 55.59927185 2.22674866 54.32052612 2.22659302 C52.9610783 2.216379 51.6016321 2.205947 50.2421875 2.1953125 C48.85499271 2.19158284 47.46779529 2.18873565 46.08059692 2.18673706 C42.42759949 2.17909684 38.77476083 2.15944516 35.12182617 2.1373291 C31.39504138 2.11687896 27.66823096 2.10773713 23.94140625 2.09765625 C16.62753175 2.07619951 9.31378811 2.04205903 2 2 C1.67 2.66 1.34 3.32 1 4 C0.67 2.68 0.34 1.36 0 0 Z " fill="#6F6F6F" transform="translate(11,88)"/>
<path d="M0 0 C2.64752004 2.57784846 4.94432065 4.91648098 7 8 C7.015625 9.87890625 7.015625 9.87890625 6 12 C3.94835108 13.78215266 1.9509407 15.3650555 -0.25 16.9375 C-3.66412491 19.41945372 -6.81228533 21.81097447 -9.796875 24.81640625 C-12 27 -12 27 -14 27 C-14 27.66 -14 28.32 -14 29 C-15.43359375 30.33984375 -15.43359375 30.33984375 -17.4375 31.9375 C-21.98174653 35.76082328 -25.49592694 40.15239323 -29.1171875 44.83984375 C-30.04917969 45.90912109 -30.04917969 45.90912109 -31 47 C-31.66 47 -32.32 47 -33 47 C-31.61806472 43.94483917 -29.99523692 41.67040839 -27.75 39.1875 C-25.46494652 36.64331674 -23.2339463 34.07893056 -21.0625 31.4375 C-17.71399505 27.53819659 -13.92133505 24.30862645 -10 21 C-8.14605891 19.41240565 -6.29479174 17.8217201 -4.44335938 16.23120117 C-1.63200171 13.81717735 1.18401149 11.40861938 4 9 C2.35 6.69 0.7 4.38 -1 2 C-0.67 1.34 -0.34 0.68 0 0 Z " fill="#7D7D7D" transform="translate(169,97)"/>
<path d="M0 0 C0.66 0.33 1.32 0.66 2 1 C1.43152344 1.88300781 0.86304687 2.76601563 0.27734375 3.67578125 C-4.5027186 11.10404593 -9.26409728 18.54347231 -14 26 C-7.07 26 -0.14 26 7 26 C6.34 26.99 5.68 27.98 5 29 C2.56982422 29.34057617 2.56982422 29.34057617 -0.4453125 29.29296875 C-1.52167969 29.28330078 -2.59804687 29.27363281 -3.70703125 29.26367188 C-4.83496094 29.23853516 -5.96289062 29.21339844 -7.125 29.1875 C-8.26066406 29.17396484 -9.39632812 29.16042969 -10.56640625 29.14648438 C-13.37807387 29.11104319 -16.18880417 29.06163517 -19 29 C-17.40279278 25.58362482 -15.43340431 22.52829019 -13.33984375 19.39453125 C-12.62892578 18.32912109 -11.91800781 17.26371094 -11.18554688 16.16601562 C-10.81679443 15.61598877 -10.44804199 15.06596191 -10.06811523 14.49926758 C-8.93530793 12.80922965 -7.80625457 11.11673101 -6.67773438 9.42382812 C-1.14028159 1.14028159 -1.14028159 1.14028159 0 0 Z " fill="#989898" transform="translate(99,34)"/>
<path d="M0 0 C9.51025217 11.42917223 21.65702114 32.52784599 20.90039062 48.04248047 C20.66641117 49.70564297 20.34254941 51.35576285 20 53 C19.67 53 19.34 53 19 53 C18.89042969 52.45811035 18.78085938 51.9162207 18.66796875 51.35791016 C15.28282308 35.02045407 10.42957785 19.89283096 1.03125 5.9453125 C0 4 0 4 0 0 Z " fill="#848484" transform="translate(83,165)"/>
<path d="M0 0 C1.73828125 0.1328125 1.73828125 0.1328125 4 1 C6.10546875 3.6171875 6.10546875 3.6171875 8.1875 6.875 C9.22970703 8.47988281 9.22970703 8.47988281 10.29296875 10.1171875 C12 13 12 13 13 16 C9.04180389 16.08678303 5.08385066 16.14031733 1.125 16.1875 C-0.00292969 16.21263672 -1.13085938 16.23777344 -2.29296875 16.26367188 C-3.90751953 16.27817383 -3.90751953 16.27817383 -5.5546875 16.29296875 C-7.04718018 16.31653442 -7.04718018 16.31653442 -8.56982422 16.34057617 C-9.37178223 16.22818604 -10.17374023 16.1157959 -11 16 C-11.66 15.01 -12.32 14.02 -13 13 C-6.07 13 0.86 13 8 13 C6.865625 11.22625 5.73125 9.4525 4.5625 7.625 C1.125 2.25 1.125 2.25 0 0 Z " fill="#A9A9A9" transform="translate(145,47)"/>
<path d="M0 0 C2.24226443 3.36339665 3.42592747 6.76340552 4.6875 10.5625 C4.92533203 11.24763672 5.16316406 11.93277344 5.40820312 12.63867188 C5.99980093 14.40652572 6.5063209 16.20234149 7 18 C6.67 18.66 6.34 19.32 6 20 C2.87081361 18.43540681 2.42473548 15.38073691 1.3125 12.25 C0.62607422 10.40148437 0.62607422 10.40148437 -0.07421875 8.515625 C-0.98081959 5.07283701 -1.05225095 3.34169394 0 0 Z " fill="#888888" transform="translate(13,90)"/>
<path d="M0 0 C0.33 0 0.66 0 1 0 C1.33 1.65 1.66 3.3 2 5 C2.33 5 2.66 5 3 5 C3 10.61 3 16.22 3 22 C2.34 22 1.68 22 1 22 C0.67 14.74 0.34 7.48 0 0 Z " fill="#6F6F6F" transform="translate(103,216)"/>
<path d="M0 0 C1.32 0.33 2.64 0.66 4 1 C4 6.61 4 12.22 4 18 C3.34 18 2.68 18 2 18 C1.93941406 17.03578125 1.87882812 16.0715625 1.81640625 15.078125 C1.73261719 13.81484375 1.64882812 12.5515625 1.5625 11.25 C1.48128906 9.99703125 1.40007812 8.7440625 1.31640625 7.453125 C1.07484478 4.81682447 0.75716066 2.51962706 0 0 Z " fill="#767676" transform="translate(102,145)"/>
<path d="M0 0 C1.10546875 1.61328125 1.10546875 1.61328125 2 4 C1.42578125 6.98046875 1.42578125 6.98046875 0.3125 10.1875 C-0.04199219 11.25355469 -0.39648438 12.31960937 -0.76171875 13.41796875 C-1.17035156 14.27003906 -1.57898438 15.12210938 -2 16 C-2.99 16.33 -3.98 16.66 -5 17 C-1.92482916 5.47835991 -1.92482916 5.47835991 0 0 Z " fill="#8B8B8B" transform="translate(213,124)"/>
<path d="M0 0 C1.4216868 4.26506039 -0.34613318 7.20037743 -1.9375 11.1875 C-2.22818359 11.93708984 -2.51886719 12.68667969 -2.81835938 13.45898438 C-3.53725036 15.30924477 -4.26754653 17.15506648 -5 19 C-5.33 19 -5.66 19 -6 19 C-5.55230183 12.95607475 -4.49961114 4.49961114 0 0 Z " fill="#7C7C7C" transform="translate(143,186)"/>
<path d="M0 0 C0.66 0 1.32 0 2 0 C3.62677091 2.13770618 5.13979644 4.2675534 6.625 6.5 C7.04523438 7.12003906 7.46546875 7.74007812 7.8984375 8.37890625 C8.93837167 9.91517264 9.96997056 11.45707524 11 13 C10.34 13.66 9.68 14.32 9 15 C7.67981412 13.25579087 6.36911398 11.50439909 5.0625 9.75 C4.33160156 8.77546875 3.60070312 7.8009375 2.84765625 6.796875 C1.24654921 4.3732119 0.42363762 2.8242508 0 0 Z " fill="#868686" transform="translate(191,128)"/>
<path d="M0 0 C0.99 0.33 1.98 0.66 3 1 C0.36 5.29 -2.28 9.58 -5 14 C-5.99 13.67 -6.98 13.34 -8 13 C-5.36 8.71 -2.72 4.42 0 0 Z " fill="#868686" transform="translate(131,149)"/>
<path d="M0 0 C2.64752004 2.57784846 4.94432065 4.91648098 7 8 C6.625 10.1875 6.625 10.1875 6 12 C4.68 11.67 3.36 11.34 2 11 C2.66 10.34 3.32 9.68 4 9 C2.35 6.69 0.7 4.38 -1 2 C-0.67 1.34 -0.34 0.68 0 0 Z " fill="#868686" transform="translate(169,97)"/>
<path d="M0 0 C0.66 0 1.32 0 2 0 C0.45158425 3.34708051 -1.49105864 6.24667512 -3.625 9.25 C-4.25664063 10.14203125 -4.88828125 11.0340625 -5.5390625 11.953125 C-6.02117188 12.62859375 -6.50328125 13.3040625 -7 14 C-7.33 13.01 -7.66 12.02 -8 11 C-6.41796875 8.30078125 -6.41796875 8.30078125 -4.1875 5.3125 C-3.09501953 3.82169922 -3.09501953 3.82169922 -1.98046875 2.30078125 C-1.32691406 1.54152344 -0.67335938 0.78226563 0 0 Z " fill="#7C7C7C" transform="translate(42,133)"/>
<path d="M0 0 C0.66 0 1.32 0 2 0 C3.76171875 2.08203125 3.76171875 2.08203125 5.6875 4.8125 C6.33074219 5.70582031 6.97398438 6.59914063 7.63671875 7.51953125 C8.31154297 8.74736328 8.31154297 8.74736328 9 10 C8.67 10.99 8.34 11.98 8 13 C6.99421411 11.71283353 5.99553202 10.42011342 5 9.125 C4.443125 8.40570313 3.88625 7.68640625 3.3125 6.9453125 C2 5 2 5 2 3 C1.01 2.67 0.02 2.34 -1 2 C-0.67 1.34 -0.34 0.68 0 0 Z " fill="#7C7C7C" transform="translate(118,5)"/>
<path d="M0 0 C1.6140712 2.8973901 2.3756433 5.33286311 2.75 8.625 C2.84796875 9.40101563 2.9459375 10.17703125 3.046875 10.9765625 C3 13 3 13 1 15 C0.63684334 13.0641649 0.28477269 11.12624752 -0.0625 9.1875 C-0.25972656 8.10855469 -0.45695312 7.02960938 -0.66015625 5.91796875 C-1 3 -1 3 0 0 Z " fill="#8E8E8E" transform="translate(101,203)"/>
<path d="M0 0 C0.66 0.66 1.32 1.32 2 2 C0.71520959 3.50589388 -0.57804082 5.00457375 -1.875 6.5 C-2.95394531 7.75296875 -2.95394531 7.75296875 -4.0546875 9.03125 C-4.69664062 9.6809375 -5.33859375 10.330625 -6 11 C-6.66 11 -7.32 11 -8 11 C-6.63629701 8.00779732 -5.05091917 5.70973471 -2.875 3.25 C-2.33617187 2.63640625 -1.79734375 2.0228125 -1.2421875 1.390625 C-0.62730469 0.70226562 -0.62730469 0.70226562 0 0 Z " fill="#868686" transform="translate(144,133)"/>
<path d="M0 0 C2.00993705 3.01490557 2.72623341 5.2149927 3.625 8.6875 C3.88539062 9.68136719 4.14578125 10.67523438 4.4140625 11.69921875 C4.60742188 12.45847656 4.80078125 13.21773437 5 14 C4.01 13.67 3.02 13.34 2 13 C1.015625 10.56640625 1.015625 10.56640625 0.25 7.5625 C-0.14445312 6.07943359 -0.14445312 6.07943359 -0.546875 4.56640625 C-1 2 -1 2 0 0 Z " fill="#8A8A8A" transform="translate(24,124)"/>
<path d="M0 0 C2.31 0.33 4.62 0.66 7 1 C6.01 1.33 5.02 1.66 4 2 C5.32 3.98 6.64 5.96 8 8 C7.67 8.66 7.34 9.32 7 10 C6.01524786 8.90081184 5.03739527 7.7954398 4.0625 6.6875 C3.51722656 6.07261719 2.97195312 5.45773438 2.41015625 4.82421875 C1 3 1 3 0 0 Z " fill="#787878" transform="translate(161,88)"/>
<path d="M0 0 C0.66 0.66 1.32 1.32 2 2 C1.57469657 5.82773086 0.26430036 9.3756723 -1 13 C-1.66 13 -2.32 13 -3 13 C-2.45144652 8.428721 -1.58255197 4.32564205 0 0 Z " fill="#8A8A8A" transform="translate(223,93)"/>
<path d="M0 0 C2.46800047 1.15173355 4.04783565 2.04783565 6 4 C4.68 4 3.36 4 2 4 C1.01 4.66 0.02 5.32 -1 6 C-1 2 -1 2 0 0 Z " fill="#898989" transform="translate(45,128)"/>
<path d="M0 0 C2.12508244 3.18762365 2.5020163 5.26512223 3 9 C2.01 9.495 2.01 9.495 1 10 C-0.83691257 6.21812119 -1.15837626 4.05431692 0 0 Z " fill="#909090" transform="translate(13,90)"/>
<path d="M0 0 C2.17766075 4.35532149 2.03039555 5.46625958 1 10 C0.01 10 -0.98 10 -2 10 C-1.34 6.7 -0.68 3.4 0 0 Z " fill="#8D8D8D" transform="translate(109,196)"/>
<path d="M0 0 C3.36591866 1.44253657 5.51047079 3.33264727 8 6 C7.67 6.66 7.34 7.32 7 8 C5.8274869 7.04882866 4.66212985 6.08882991 3.5 5.125 C2.8503125 4.59132813 2.200625 4.05765625 1.53125 3.5078125 C1.0259375 3.01023437 0.520625 2.51265625 0 2 C0 1.34 0 0.68 0 0 Z " fill="#7B7B7B" transform="translate(81,122)"/>
<path d="M0 0 C0.33 0 0.66 0 1 0 C1 3.63 1 7.26 1 11 C0.01 10.34 -0.98 9.68 -2 9 C-2 7.68 -2 6.36 -2 5 C-1.34 5 -0.68 5 0 5 C0 3.35 0 1.7 0 0 Z " fill="#7D7D7D" transform="translate(106,213)"/>
<path d="M0 0 C1.32 0 2.64 0 4 0 C3.25 4.75 3.25 4.75 1 7 C1 5.35 1 3.7 1 2 C0.34 1.67 -0.32 1.34 -1 1 C-0.67 0.67 -0.34 0.34 0 0 Z " fill="#787878" transform="translate(223,88)"/>
<path d="M0 0 C0.99 0.33 1.98 0.66 3 1 C0.525 4.465 0.525 4.465 -2 8 C-2.33 7.01 -2.66 6.02 -3 5 C-1.5625 2.3125 -1.5625 2.3125 0 0 Z " fill="#7F7F7F" transform="translate(131,149)"/>
<path d="M0 0 C0.99 0 1.98 0 3 0 C2.625 2.4375 2.625 2.4375 2 5 C1.01 5.495 1.01 5.495 0 6 C-0.38218767 4.34385343 -0.71395102 2.67542976 -1 1 C-0.67 0.67 -0.34 0.34 0 0 Z " fill="#868686" transform="translate(31,145)"/>
<path d="M0 0 C2.99324263 1.0975223 3.84610901 1.67682892 5.25 4.625 C5.4975 5.40875 5.745 6.1925 6 7 C5.01 7 4.02 7 3 7 C2.01 4.69 1.02 2.38 0 0 Z " fill="#7C7C7C" transform="translate(151,55)"/>
</svg>
